# File generated by ImageToStl.com - Free Image and 3D model conversion tools

mtllib beachgrass.mtl
usemtl beachgrass


o obj1
v -3.2962041 3.87524 0.3983479
v -0.02384482 -0.28338763 0.00259686
v 1.8563439 0.2782556 9.647525
v -1.4160151 4.436883 10.04328
v -0.4790851 -5.55551 0.3983479
v 1.4011039 -4.993867 10.04328
v -4.9456111 -2.228188 0.3983479
v -0.02435104 -0.28301051 0.00259733
v -0.02435098 1.679272 9.647524
v -4.9456111 -0.26590526 10.04327
v 4.8969079 -2.228189 0.3983483
v 4.8969079 -0.26590652 10.04327
v 3.3873369 2.763153 0.3983479
v -0.02410088 -1.2821661 0.00259686
v 0.9059526 -3.010042 9.647524
v 4.3173899 1.035277 10.04328
v -5.2794311 -1.901857 0.3983479
v -4.3493781 -3.629733 10.04328
v -4.4372871 3.641454 0.3983474
v -0.02391807 0.721747 0.00259638
v 1.5845489 1.845752 9.647524
v -2.8288201 4.76546 10.04327
v 1.2005579 -4.426377 0.3983474
v 2.8090249 -3.302372 10.04327
vn -0.76369 -0.61853 0.18489
vn -0.93893 -0.28047 0.19937
vn -0.93893 -0.28047 0.19937
vn -0.76369 -0.61853 0.18489
vn -0.97783 0.09831 0.18489
vn -0.97783 0.09831 0.18489
vn 0.37407 -0.90878 0.18489
vn -0 -0.97992 0.19937
vn -0 -0.97992 0.19937
vn -0.37407 -0.90878 0.18489
vn -0.37407 -0.90878 0.18489
vn -0.76012 0.62292 0.18489
vn -0.46445 0.86287 0.19937
vn -0.46445 0.86287 0.19937
vn -0.76012 0.62292 0.18489
vn -0.10134 0.97752 0.18489
vn -0.10134 0.97752 0.18489
vn -0.53065 -0.82718 0.18489
vn -0.80324 -0.56131 0.19937
vn -0.80324 -0.56131 0.19937
vn -0.53065 -0.82718 0.18489
vn -0.95919 -0.21393 0.18489
vn -0.95919 -0.21393 0.18489
vt 0 0
vt 0.5 0
vt 0.5 1
vt 0 1
vt 1 0
vt 1 1

f 1/1/1 2/2/2 3/3/3
f 3/3/3 4/4/4 1/1/1
f 2/2/2 5/5/5 6/6/6
f 6/6/6 3/3/3 2/2/2
f 7/1/7 8/2/8 9/3/9
f 9/3/9 10/4/7 7/1/7
f 8/2/8 11/5/10 12/6/11
f 12/6/11 9/3/9 8/2/8
f 13/1/12 14/2/13 15/3/14
f 15/3/14 16/4/15 13/1/12
f 14/2/13 17/5/16 18/6/17
f 18/6/17 15/3/14 14/2/13
f 19/1/18 20/2/19 21/3/20
f 21/3/20 22/4/21 19/1/18
f 20/2/19 23/5/22 24/6/23
f 24/6/23 21/3/20 20/2/19
# Vertices: 24, normals: 23, texture coordinates: 6, faces: 16

