# Blender 5.0.1
# www.blender.org
mtllib campfire.mtl
o Plane
v -1.147343 -0.543023 -1.648467
v 0.374915 -0.293530 1.578504
v -1.163194 -0.320585 -1.660917
v 0.423704 -0.219011 1.565137
v -1.128114 -0.138303 -1.726996
v 0.523883 -0.059312 1.501857
v -0.947677 -0.065804 -1.821463
v 0.693919 0.009007 1.412836
v -0.757442 -0.130779 -1.908235
v 0.812132 0.075412 1.332078
v -0.630075 -0.308409 -1.954167
v 0.925163 -0.072441 1.290428
v -0.614226 -0.530848 -1.941717
v 0.933105 -0.262517 1.303796
v -0.715946 -0.713129 -1.875639
v 0.832926 -0.422215 1.367075
v -0.896383 -0.785628 -1.781173
v 0.662890 -0.490535 1.456096
v -1.086617 -0.720654 -1.694401
v 0.487946 -0.441382 1.536855
v -0.507293 -0.459850 0.073257
v -0.510890 -0.257991 0.068688
v -0.401795 -0.088507 0.007584
v -0.221678 -0.016137 -0.086715
v -0.039337 -0.068522 -0.178189
v 0.075579 -0.225654 -0.231901
v 0.079177 -0.427513 -0.227332
v -0.029918 -0.596997 -0.166228
v -0.210035 -0.669367 -0.071929
v -0.392376 -0.616982 0.019545
v -0.036100 -0.383511 0.817475
v 0.015576 -0.308604 0.809921
v 0.117539 -0.148666 0.750234
v 0.287575 -0.080347 0.661214
v 0.404004 -0.014181 0.576862
v 0.514146 -0.162423 0.529399
v 0.519202 -0.352888 0.536952
v 0.417238 -0.512826 0.596638
v 0.247202 -0.581146 0.685660
v 0.074042 -0.531753 0.770011
v -0.821298 -0.284592 -0.770081
v -0.785975 -0.124654 -0.829767
v -0.615939 -0.056333 -0.918787
v -0.442780 -0.105728 -1.003139
v -0.332636 -0.253970 -1.050603
v -0.327582 -0.444435 -1.043048
v -0.429546 -0.604373 -0.983362
v -0.599581 -0.672693 -0.894342
v -0.772741 -0.623299 -0.809990
v -0.816242 -0.475057 -0.762526
v 0.987495 0.796761 -0.712644
v -1.566879 -0.611006 1.714603
v 1.110965 0.656188 -0.673349
v -1.437298 -0.719806 1.778982
v 1.171678 0.472170 -0.722675
v -1.363641 -0.882704 1.755199
v -0.342073 0.137313 0.283503
v -0.432560 0.049778 0.140853
v -0.442960 -0.104999 0.037992
v -0.002827 -0.147526 0.452049
v -0.076484 0.015374 0.475832
v -0.206065 0.124173 0.411453
v 0.721651 0.612723 -1.088042
v -1.803775 -0.840178 1.341141
v 0.746885 0.769897 -0.968938
v -1.793373 -0.685401 1.444003
v 0.848428 0.840194 -0.825548
v -1.702887 -0.597866 1.586652
v -0.123662 -1.146457 -1.945328
v -0.285034 1.152903 0.707803
v -0.293839 -1.100909 -2.012821
v -0.424860 1.179051 0.664877
v -0.384310 -1.002635 -2.130999
v -0.513599 1.256391 0.570135
v -0.043447 0.155693 -0.551418
v 0.085520 0.241006 -0.633426
v 0.109313 0.354468 -0.757148
v -0.488973 0.274940 -0.728119
v -0.398502 0.176666 -0.609943
v -0.228326 0.131118 -0.542449
v 0.213976 -0.923106 -2.160027
v -0.068629 1.369747 0.488308
v 0.190185 -1.036570 -2.036306
v -0.064871 1.270760 0.598678
v 0.061218 -1.121882 -1.954298
v -0.147531 1.187931 0.682518
v -0.115550 0.499143 0.733442
v -0.024293 0.649123 0.700840
v 0.649999 0.376431 0.478995
v 0.622763 0.412136 0.287560
v 0.534203 0.350832 0.117996
v 0.418145 0.215937 0.035069
v 0.318921 0.058975 0.070456
v 0.274430 -0.060099 0.210639
v 0.301666 -0.095803 0.402073
v 0.390226 -0.034500 0.571638
v 0.506283 0.100395 0.654565
v 0.605507 0.257357 0.619179
v -0.623843 1.142860 0.767927
v 1.857500 -0.497817 -0.083171
v -0.653763 1.179566 0.588657
v 1.830377 -0.448617 -0.279515
v -0.844944 1.121695 0.428583
v 1.741659 -0.510029 -0.449381
v -0.950298 0.991350 0.348848
v 1.625234 -0.658597 -0.527887
v -0.929579 0.838320 0.379909
v 1.525570 -0.837571 -0.485045
v -0.964771 0.721057 0.509900
v 1.480738 -0.978591 -0.337221
v -0.934851 0.684351 0.689170
v 1.507861 -1.027791 -0.140877
v -0.851248 0.742223 0.849244
v 1.596578 -0.966379 0.028989
v -0.745895 0.872567 0.879516
v 1.713004 -0.817811 0.107495
v -0.659033 1.025598 0.848455
v 1.812667 -0.638836 0.064654
v -0.223619 0.370684 0.704122
v -0.307222 0.312812 0.544049
v -0.334426 0.347632 0.363826
v -0.294839 0.461845 0.232293
v -0.311161 0.611824 0.199691
v -0.203091 0.740283 0.278473
v -0.011909 0.798156 0.438546
v 0.015294 0.763336 0.618770
v 1.104528 -0.353784 0.409753
v 0.996459 -0.482243 0.330971
v 0.912855 -0.540116 0.170897
v 0.885652 -0.505295 -0.009326
v 0.925240 -0.391083 -0.140859
v 1.016495 -0.241103 -0.173461
v 1.124565 -0.112644 -0.094679
v 1.208168 -0.054772 0.065395
v 1.235372 -0.089592 0.245618
v 1.195784 -0.203805 0.377151
v 0.721125 0.857368 0.314565
v -1.650972 -0.761585 -0.811834
v 0.734372 0.926797 0.189996
v -1.627623 -0.704418 -0.940220
v 0.691950 1.042239 0.116603
v -1.664244 -0.586469 -1.029155
v -0.510656 0.031692 -0.131091
v -0.600732 -0.023534 -0.048287
v -0.682621 0.093824 -0.042471
v -0.475974 0.213460 -0.457214
v -0.433551 0.098017 -0.383821
v -0.446798 0.028589 -0.259253
v 0.485302 1.052283 0.531347
v -1.905015 -0.633796 -0.644714
v 0.567191 0.934923 0.525531
v -1.822409 -0.767471 -0.629201
v 0.657268 0.860472 0.442727
v -1.725374 -0.736138 -0.693035
vn -0.9747 -0.1893 -0.1188
vn -0.4499 0.0110 0.8930
vn -0.9681 0.0503 -0.2454
vn 0.3132 0.0781 0.9465
vn -0.7930 0.4381 -0.4233
vn -0.1199 0.6350 0.7632
vn -0.3153 0.7280 -0.6088
vn 0.0858 0.6859 0.7226
vn 0.1333 0.5970 -0.7911
vn 0.4044 0.8475 0.3437
vn 0.4151 0.2169 -0.8835
vn 0.9246 0.3143 0.2154
vn 0.4499 -0.2595 -0.8545
vn 0.9494 -0.1889 0.2508
vn 0.2125 -0.6688 -0.7124
vn 0.7183 -0.5553 0.4192
vn -0.2127 -0.8281 -0.5187
vn 0.3492 -0.6996 0.6233
vn -0.7209 -0.6174 -0.3148
vn -0.0534 -0.5801 0.8128
vn -0.8368 -0.3350 0.4331
vn -0.8427 0.3173 0.4349
vn -0.5302 0.7932 0.2995
vn -0.0447 0.9981 0.0416
vn 0.4526 0.8528 -0.2604
vn 0.8227 0.3325 -0.4611
vn 0.8433 -0.3176 -0.4336
vn 0.5373 -0.8083 -0.2406
vn 0.0550 -0.9981 0.0291
vn -0.4734 -0.8324 0.2883
vn -0.8343 -0.0750 0.5461
vn -0.7090 0.5688 0.4169
vn -0.5148 0.8025 0.3016
vn -0.3330 0.9321 0.1423
vn 0.1648 0.9690 -0.1843
vn 0.8105 0.3283 -0.4850
vn 0.8440 -0.3111 -0.4370
vn 0.5577 -0.7996 -0.2228
vn 0.0889 -0.9939 0.0653
vn -0.4256 -0.8371 0.3437
vn -0.9187 0.1701 0.3565
vn -0.6713 0.6950 0.2574
vn -0.0623 0.9981 -0.0034
vn 0.4825 0.8456 -0.2284
vn 0.8633 0.3444 -0.3689
vn 0.8911 -0.2986 -0.3417
vn 0.5732 -0.8002 -0.1765
vn 0.0568 -0.9976 0.0401
vn -0.6093 -0.7382 0.2894
vn -0.9094 -0.2006 0.3643
vn 0.5447 0.8365 0.0590
vn -0.4043 0.4099 0.8176
vn 0.8590 0.4875 0.1566
vn -0.0590 0.1104 0.9921
vn 0.9030 -0.3915 -0.1771
vn 0.2071 -0.7215 0.6608
vn -0.4167 0.9031 0.1038
vn -0.6946 0.6310 -0.3453
vn -0.4595 -0.4652 -0.7566
vn 0.6986 -0.6218 0.3541
vn 0.4698 0.4587 0.7542
vn 0.0218 0.8509 0.5248
vn -0.0839 -0.0809 -0.9932
vn -0.7659 -0.5884 -0.2592
vn -0.0906 0.7793 -0.6201
vn -0.9586 0.2381 0.1564
vn 0.1649 0.9544 -0.2489
vn -0.7427 0.4469 0.4987
vn -0.0731 -0.9947 0.0722
vn -0.0504 -0.1091 0.9927
vn -0.4622 -0.8842 -0.0681
vn -0.5000 -0.0071 0.8660
vn -0.7028 -0.1651 -0.6919
vn -0.8173 0.5293 0.2278
vn 0.4281 -0.6604 0.6170
vn 0.8885 -0.2949 0.3517
vn 0.7051 0.5723 -0.4187
vn -0.8962 0.3077 -0.3197
vn -0.6697 -0.5832 0.4598
vn -0.1474 -0.7527 0.6417
vn 0.6117 0.0368 -0.7902
vn 0.4494 0.8933 -0.0095
vn 0.7137 -0.6824 -0.1576
vn 0.6909 0.3359 0.6402
vn 0.3556 -0.9331 0.0538
vn 0.4179 0.0190 0.9083
vn 0.1318 -0.1007 0.9861
vn 0.3399 0.2668 0.9018
vn 0.5960 0.7065 0.3818
vn 0.5159 0.8306 -0.2099
vn 0.2444 0.6654 -0.7054
vn -0.1200 0.2504 -0.9607
vn -0.4595 -0.2914 -0.8390
vn -0.6052 -0.7085 -0.3629
vn -0.5091 -0.8295 0.2296
vn -0.2424 -0.6391 0.7299
vn 0.1042 -0.2147 0.9711
vn 0.4363 0.3086 0.8452
vn -0.1442 0.8383 0.5258
vn 0.9745 0.1879 0.1229
vn -0.1416 0.9893 -0.0344
vn 0.8819 0.3429 -0.3236
vn -0.5628 0.8227 -0.0805
vn 0.6354 0.2220 -0.7396
vn -0.7791 0.4301 -0.4561
vn 0.3390 -0.1262 -0.9323
vn -0.6371 -0.3294 -0.6969
vn 0.1080 -0.5407 -0.8343
vn -0.9478 -0.2980 -0.1138
vn 0.0173 -0.8701 -0.4925
vn -0.8936 -0.3261 0.3085
vn 0.1101 -0.9936 -0.0233
vn -0.6364 -0.1371 0.7591
vn 0.3650 -0.8521 0.3751
vn -0.3380 0.2218 0.9147
vn 0.6664 -0.5214 0.5330
vn -0.2366 0.4942 0.8365
vn 0.8910 -0.1402 0.4317
vn -0.1807 -0.5746 0.7983
vn -0.4855 -0.8480 0.2128
vn -0.5568 -0.7371 -0.3828
vn -0.4357 -0.4030 -0.8048
vn -0.1530 0.1290 -0.9798
vn 0.1799 0.6229 -0.7613
vn 0.4371 0.8570 -0.2730
vn 0.5293 0.6980 0.4823
vn 0.2033 -0.2912 0.9348
vn -0.2004 -0.6779 0.7073
vn -0.5255 -0.8182 0.2332
vn -0.6643 -0.6649 -0.3414
vn -0.5499 -0.2368 -0.8010
vn -0.2210 0.2989 -0.9284
vn 0.1788 0.7029 -0.6885
vn 0.5082 0.8367 -0.2042
vn 0.6545 0.6621 0.3651
vn 0.5394 0.2263 0.8110
vn 0.9356 -0.2829 0.2112
vn -0.0956 -0.9815 -0.1656
vn 0.9784 -0.0559 -0.1991
vn -0.0124 -0.7835 -0.6213
vn 0.5021 0.6986 -0.5098
vn -0.3229 0.1290 -0.9376
vn 0.5146 -0.8384 0.1797
vn 0.1941 -0.7326 0.6524
vn -0.6248 0.4130 0.6626
vn 0.0033 0.5321 -0.8466
vn 0.6349 -0.5173 -0.5739
vn 0.5777 -0.8154 -0.0374
vn -0.0959 0.7280 0.6788
vn -0.9879 0.0833 0.1311
vn 0.4321 -0.0310 0.9013
vn -0.4746 -0.8690 0.1400
vn 0.7248 -0.2741 0.6321
vn -0.0621 -0.9917 -0.1127
vt 0.507754 0.493470
vt 0.513419 0.589787
vt 0.497595 0.601830
vt 0.523579 0.482199
vt 0.537084 0.586748
vt 0.547245 0.479637
vt 0.559551 0.593874
vt 0.582399 0.500854
vt 0.572239 0.608442
vt 0.533588 0.855532
vt 0.531066 0.956767
vt 0.521338 0.838873
vt 0.567368 0.828635
vt 0.562260 0.925770
vt 0.551526 0.816825
vt 0.538602 0.923594
vt 0.527867 0.814172
vt 0.516163 0.931110
vt 0.505428 0.821689
vt 0.284243 0.335847
vt 0.522444 0.022184
vt 0.544091 0.386383
vt 0.503513 0.945449
vt 0.492780 0.836504
vt 0.539497 0.492836
vt 0.544750 0.591738
vt 0.529613 0.611192
vt 0.523158 0.149151
vt 0.409408 0.421325
vt 0.286957 0.297214
vt 0.526861 0.724164
vt 0.553124 0.821299
vt 0.535343 0.839750
vt 0.495745 0.718847
vt 0.488422 0.627883
vt 0.501070 0.613067
vt 0.519514 0.710885
vt 0.523509 0.605550
vt 0.544573 0.713972
vt 0.547168 0.608204
vt 0.561349 0.726929
vt 0.563010 0.620013
vt 0.526159 0.633629
vt 0.510309 0.731207
vt 0.514077 0.617884
vt 0.556338 0.802616
vt 0.566885 0.708851
vt 0.569026 0.817184
vt 0.533870 0.795490
vt 0.553441 0.693143
vt 0.510205 0.798529
vt 0.529641 0.685595
vt 0.494382 0.810572
vt 0.504577 0.689090
vt 0.545847 0.703247
vt 0.482344 0.734817
vt 0.523059 0.748796
vt 0.487823 0.702294
vt 0.502098 0.929007
vt 0.519981 0.915394
vt 0.545768 0.911653
vt 0.569610 0.919215
vt 0.582399 0.935189
vt 0.531759 0.511706
vt 0.515945 0.494761
vt 0.574542 0.499975
vt 0.556642 0.486622
vt 0.530862 0.483300
vt 0.507050 0.491276
vt 0.494302 0.507505
vt 0.556240 0.948811
vt 0.535464 0.968216
vt 0.436941 0.987662
vt 0.377937 0.705280
vt 0.435302 0.759323
vt 0.378517 0.481218
vt 0.435874 0.533210
vt 0.398030 0.078846
vt 0.480414 0.402188
vt 0.346732 0.283026
vt 0.463407 0.739614
vt 0.431116 0.975415
vt 0.424754 0.747619
vt 0.500251 0.722932
vt 0.470612 0.967434
vt 0.311350 0.319246
vt 0.379296 0.080030
vt 0.484438 0.447339
vt 0.587793 0.738394
vt 0.545052 0.970907
vt 0.549451 0.754700
vt 0.469473 0.500689
vt 0.430668 0.513138
vt 0.506602 0.478254
vt 0.591263 0.498102
vt 0.552215 0.521810
vt 0.449483 0.722340
vt 0.415581 0.483398
vt 0.453796 0.512630
vt 0.398704 0.745456
vt 0.404577 0.512658
vt 0.396039 0.932587
vt 0.411236 0.698042
vt 0.402016 0.973897
vt 0.588668 0.955367
vt 0.505901 0.952446
vt 0.378971 0.933381
vt 0.557656 0.472848
vt 0.329048 0.069554
vt 0.597165 0.259201
vt 0.449949 0.453055
vt 0.578099 0.936808
vt 0.543574 0.972905
vt 0.569712 0.486763
vt 0.313690 0.192212
vt 0.484438 0.021646
vt 0.350696 0.433752
vt 0.275975 0.196735
vt 0.423191 0.002880
vt 0.588897 0.120089
vt 0.297479 0.200787
vt 0.357258 0.129001
vt 0.443459 0.109278
vt 0.565912 0.233389
vt 0.555389 0.329817
vt 0.495610 0.401602
vt 0.329710 0.381453
vt 0.348030 0.173862
vt 0.480092 0.032043
vt 0.397722 0.370701
vt 0.377634 0.417597
vt 0.435472 0.965955
s 1
usemtl Material.001
f 2/1/2 32/2/32 31/3/31
f 4/4/4 33/5/33 32/2/32
f 6/6/6 34/7/34 33/5/33
f 34/7/34 10/8/10 35/9/35
f 35/10/35 12/11/12 36/12/36
f 36/13/36 14/14/14 37/15/37
f 37/15/37 16/16/16 38/17/38
f 38/17/38 18/18/18 39/19/39
f 2/20/2 14/21/14 8/22/8
f 39/19/39 20/23/20 40/24/40
f 20/25/20 31/26/31 40/27/40
f 7/28/7 15/29/15 19/30/19
f 30/31/30 50/32/50 49/33/49
f 29/34/29 49/35/49 48/36/48
f 28/37/28 48/36/48 47/38/47
f 27/39/27 47/38/47 46/40/46
f 26/41/26 46/40/46 45/42/45
f 44/43/44 26/44/26 45/45/45
f 43/46/43 25/47/25 44/48/44
f 42/49/42 24/50/24 43/46/43
f 41/51/41 23/52/23 42/49/42
f 50/53/50 22/54/22 41/51/41
f 30/31/30 31/26/31 21/55/21
f 29/34/29 40/24/40 30/56/30
f 28/37/28 39/19/39 29/34/29
f 27/39/27 38/17/38 28/37/28
f 26/41/26 37/15/37 27/39/27
f 35/10/35 26/44/26 25/57/25
f 34/7/34 25/47/25 24/50/24
f 33/5/33 24/50/24 23/52/23
f 32/2/32 23/52/23 22/54/22
f 31/3/31 22/54/22 21/58/21
f 1/59/1 41/51/41 3/60/3
f 3/60/3 42/49/42 5/61/5
f 5/61/5 43/46/43 7/62/7
f 7/62/7 44/48/44 9/63/9
f 9/64/9 45/45/45 11/65/11
f 11/66/11 46/40/46 13/67/13
f 46/40/46 15/68/15 13/67/13
f 47/38/47 17/69/17 15/68/15
f 48/36/48 19/70/19 17/69/17
f 49/33/49 1/71/1 19/72/19
f 63/73/63 60/74/60 59/75/59
f 59/75/59 56/76/56 64/77/64
f 66/78/66 56/79/56 52/80/52
f 62/81/62 67/82/67 57/83/57
f 61/84/61 51/85/51 62/81/62
f 67/86/67 53/87/53 63/88/63
f 60/89/60 53/90/53 61/91/61
f 52/92/52 57/83/57 68/93/68
f 54/94/54 62/81/62 52/92/52
f 56/95/56 61/91/61 54/96/54
f 58/97/58 64/98/64 66/99/66
f 68/93/68 58/100/58 66/101/66
f 58/97/58 63/102/63 59/103/59
f 57/83/57 65/104/65 58/100/58
f 80/83/80 72/104/72 79/100/79
f 79/97/79 74/102/74 78/103/78
f 69/93/69 79/100/79 71/101/71
f 71/99/71 78/103/78 73/98/73
f 77/89/77 83/96/83 81/95/81
f 76/84/76 85/92/85 83/94/83
f 75/81/75 69/93/69 85/92/85
f 82/105/82 76/91/76 77/89/77
f 70/86/70 84/87/84 74/88/74
f 84/106/84 75/81/75 76/84/76
f 86/85/86 80/83/80 75/81/75
f 71/78/71 81/79/81 85/80/85
f 73/77/73 77/74/77 81/76/81
f 78/75/78 82/107/82 77/74/77
f 121/10/121 93/44/93 94/57/94
f 122/13/122 92/39/92 93/41/93
f 92/39/92 124/17/124 91/37/91
f 91/37/91 125/19/125 90/34/90
f 90/34/90 126/24/126 89/56/89
f 89/31/89 88/26/88 98/55/98
f 136/53/136 97/54/97 127/51/127
f 127/51/127 96/52/96 128/49/128
f 128/49/128 95/50/95 129/46/129
f 129/46/129 94/47/94 130/48/130
f 130/43/130 93/44/93 131/45/131
f 93/41/93 132/40/132 131/42/131
f 92/39/92 133/38/133 132/40/132
f 91/37/91 134/36/134 133/38/133
f 90/34/90 135/35/135 134/36/134
f 89/31/89 136/32/136 135/33/135
f 112/28/112 104/29/104 100/30/100
f 126/27/126 117/108/117 88/26/88
f 125/19/125 99/23/99 126/24/126
f 101/109/101 109/110/109 113/111/113
f 124/17/124 101/18/101 125/19/125
f 123/15/123 103/16/103 124/17/124
f 107/112/107 123/15/123 122/13/122
f 109/113/109 122/12/122 121/10/121
f 111/114/111 121/9/121 120/7/120
f 113/6/113 120/7/120 119/5/119
f 115/4/115 119/5/119 87/2/87
f 117/1/117 87/2/87 88/3/88
f 120/7/120 94/47/94 95/50/95
f 119/5/119 95/50/95 96/52/96
f 87/2/87 96/52/96 97/54/97
f 88/3/88 97/54/97 98/58/98
f 118/59/118 127/51/127 116/60/116
f 116/60/116 128/49/128 114/61/114
f 114/61/114 129/46/129 112/62/112
f 112/62/112 130/48/130 110/63/110
f 110/64/110 131/45/131 108/65/108
f 131/42/131 106/67/106 108/66/108
f 132/40/132 104/68/104 106/67/106
f 133/38/133 102/69/102 104/68/104
f 134/36/134 100/70/100 102/69/102
f 135/33/135 118/71/118 100/72/100
f 148/83/148 140/104/140 147/100/147
f 147/97/147 142/102/142 146/103/146
f 137/93/137 147/100/147 139/101/139
f 139/99/139 146/103/146 141/98/141
f 145/89/145 151/96/151 149/95/149
f 151/94/151 143/81/143 153/92/153
f 143/81/143 137/93/137 153/92/153
f 145/89/145 152/90/152 144/91/144
f 154/115/154 150/116/150 142/88/142
f 144/84/144 154/85/154 143/81/143
f 143/81/143 138/82/138 148/83/148
f 139/78/139 149/79/149 153/80/153
f 146/75/146 149/76/149 141/77/141
f 142/73/142 145/74/145 146/75/146
f 2/1/2 4/4/4 32/2/32
f 4/4/4 6/6/6 33/5/33
f 6/6/6 8/114/8 34/7/34
f 34/7/34 8/114/8 10/8/10
f 35/10/35 10/113/10 12/11/12
f 36/13/36 12/112/12 14/14/14
f 37/15/37 14/14/14 16/16/16
f 38/17/38 16/16/16 18/18/18
f 6/111/6 4/117/4 2/20/2
f 2/20/2 20/118/20 18/109/18
f 18/109/18 16/119/16 14/21/14
f 14/21/14 12/120/12 10/110/10
f 8/22/8 6/111/6 2/20/2
f 14/21/14 10/110/10 8/22/8
f 2/20/2 18/109/18 14/21/14
f 39/19/39 18/18/18 20/23/20
f 20/25/20 2/108/2 31/26/31
f 19/30/19 1/121/1 3/122/3
f 3/122/3 5/123/5 7/28/7
f 7/28/7 9/124/9 11/125/11
f 11/125/11 13/126/13 15/29/15
f 15/29/15 17/127/17 19/30/19
f 19/30/19 3/122/3 7/28/7
f 7/28/7 11/125/11 15/29/15
f 30/31/30 21/55/21 50/32/50
f 29/34/29 30/56/30 49/35/49
f 28/37/28 29/34/29 48/36/48
f 27/39/27 28/37/28 47/38/47
f 26/41/26 27/39/27 46/40/46
f 44/43/44 25/57/25 26/44/26
f 43/46/43 24/50/24 25/47/25
f 42/49/42 23/52/23 24/50/24
f 41/51/41 22/54/22 23/52/23
f 50/53/50 21/58/21 22/54/22
f 30/31/30 40/27/40 31/26/31
f 29/34/29 39/19/39 40/24/40
f 28/37/28 38/17/38 39/19/39
f 27/39/27 37/15/37 38/17/38
f 26/41/26 36/13/36 37/15/37
f 35/10/35 36/12/36 26/44/26
f 34/7/34 35/9/35 25/47/25
f 33/5/33 34/7/34 24/50/24
f 32/2/32 33/5/33 23/52/23
f 31/3/31 32/2/32 22/54/22
f 1/59/1 50/53/50 41/51/41
f 3/60/3 41/51/41 42/49/42
f 5/61/5 42/49/42 43/46/43
f 7/62/7 43/46/43 44/48/44
f 9/64/9 44/43/44 45/45/45
f 11/66/11 45/42/45 46/40/46
f 46/40/46 47/38/47 15/68/15
f 47/38/47 48/36/48 17/69/17
f 48/36/48 49/35/49 19/70/19
f 49/33/49 50/32/50 1/71/1
f 63/73/63 55/107/55 60/74/60
f 59/75/59 60/74/60 56/76/56
f 52/80/52 68/128/68 66/78/66
f 66/78/66 64/129/64 56/79/56
f 56/79/56 54/130/54 52/80/52
f 62/81/62 51/85/51 67/82/67
f 61/84/61 53/106/53 51/85/51
f 63/88/63 65/131/65 67/86/67
f 67/86/67 51/115/51 53/87/53
f 53/87/53 55/116/55 63/88/63
f 60/89/60 55/105/55 53/90/53
f 52/92/52 62/81/62 57/83/57
f 54/94/54 61/84/61 62/81/62
f 56/95/56 60/89/60 61/91/61
f 58/97/58 59/103/59 64/98/64
f 68/93/68 57/83/57 58/100/58
f 58/97/58 65/132/65 63/102/63
f 57/83/57 67/82/67 65/104/65
f 80/83/80 70/82/70 72/104/72
f 79/97/79 72/132/72 74/102/74
f 69/93/69 80/83/80 79/100/79
f 71/99/71 79/97/79 78/103/78
f 77/89/77 76/91/76 83/96/83
f 76/84/76 75/81/75 85/92/85
f 75/81/75 80/83/80 69/93/69
f 82/105/82 84/90/84 76/91/76
f 74/88/74 72/131/72 70/86/70
f 70/86/70 86/115/86 84/87/84
f 84/87/84 82/116/82 74/88/74
f 84/106/84 86/85/86 75/81/75
f 86/85/86 70/82/70 80/83/80
f 85/80/85 69/128/69 71/78/71
f 71/78/71 73/129/73 81/79/81
f 81/79/81 83/130/83 85/80/85
f 73/77/73 78/75/78 77/74/77
f 78/75/78 74/73/74 82/107/82
f 121/10/121 122/12/122 93/44/93
f 122/13/122 123/15/123 92/39/92
f 92/39/92 123/15/123 124/17/124
f 91/37/91 124/17/124 125/19/125
f 90/34/90 125/19/125 126/24/126
f 89/31/89 126/27/126 88/26/88
f 136/53/136 98/58/98 97/54/97
f 127/51/127 97/54/97 96/52/96
f 128/49/128 96/52/96 95/50/95
f 129/46/129 95/50/95 94/47/94
f 130/43/130 94/57/94 93/44/93
f 93/41/93 92/39/92 132/40/132
f 92/39/92 91/37/91 133/38/133
f 91/37/91 90/34/90 134/36/134
f 90/34/90 89/56/89 135/35/135
f 89/31/89 98/55/98 136/32/136
f 100/30/100 118/121/118 116/122/116
f 116/122/116 114/123/114 112/28/112
f 112/28/112 110/124/110 108/125/108
f 108/125/108 106/126/106 104/29/104
f 104/29/104 102/127/102 100/30/100
f 100/30/100 116/122/116 112/28/112
f 112/28/112 108/125/108 104/29/104
f 126/27/126 99/25/99 117/108/117
f 125/19/125 101/18/101 99/23/99
f 113/111/113 115/117/115 117/20/117
f 117/20/117 99/118/99 101/109/101
f 101/109/101 103/119/103 105/21/105
f 105/21/105 107/120/107 109/110/109
f 109/110/109 111/22/111 113/111/113
f 113/111/113 117/20/117 101/109/101
f 101/109/101 105/21/105 109/110/109
f 124/17/124 103/16/103 101/18/101
f 123/15/123 105/14/105 103/16/103
f 107/112/107 105/14/105 123/15/123
f 109/113/109 107/11/107 122/12/122
f 111/114/111 109/8/109 121/9/121
f 113/6/113 111/114/111 120/7/120
f 115/4/115 113/6/113 119/5/119
f 117/1/117 115/4/115 87/2/87
f 120/7/120 121/9/121 94/47/94
f 119/5/119 120/7/120 95/50/95
f 87/2/87 119/5/119 96/52/96
f 88/3/88 87/2/87 97/54/97
f 118/59/118 136/53/136 127/51/127
f 116/60/116 127/51/127 128/49/128
f 114/61/114 128/49/128 129/46/129
f 112/62/112 129/46/129 130/48/130
f 110/64/110 130/43/130 131/45/131
f 131/42/131 132/40/132 106/67/106
f 132/40/132 133/38/133 104/68/104
f 133/38/133 134/36/134 102/69/102
f 134/36/134 135/35/135 100/70/100
f 135/33/135 136/32/136 118/71/118
f 148/83/148 138/82/138 140/104/140
f 147/97/147 140/132/140 142/102/142
f 137/93/137 148/83/148 147/100/147
f 139/99/139 147/97/147 146/103/146
f 145/89/145 144/91/144 151/96/151
f 151/94/151 144/84/144 143/81/143
f 143/81/143 148/83/148 137/93/137
f 145/89/145 150/105/150 152/90/152
f 142/88/142 140/131/140 138/86/138
f 154/115/154 152/87/152 150/116/150
f 142/88/142 138/86/138 154/115/154
f 144/84/144 152/106/152 154/85/154
f 143/81/143 154/85/154 138/82/138
f 153/80/153 137/128/137 139/78/139
f 139/78/139 141/129/141 149/79/149
f 149/79/149 151/130/151 153/80/153
f 146/75/146 145/74/145 149/76/149
f 142/73/142 150/107/150 145/74/145
