# Blender v3.1.2 OBJ File: '0ceanaAnima.blend'
# www.blender.org
mtllib pier.mtl
usemtl piermtl
o Cube.007_Cube.008
v 6.830749 4.231006 3.339519
v 6.856129 4.251006 3.340080
v 6.830307 4.251006 3.359517
v 6.856129 4.428563 3.340080
v 6.830749 4.448563 3.339519
v 6.830307 4.428563 3.359517
v 6.165606 4.231006 3.324829
v 6.165164 4.251006 3.344827
v 6.140226 4.251006 3.324268
v 6.165606 4.448563 3.324829
v 6.140226 4.428563 3.324268
v 6.165164 4.428563 3.344827
v 6.977939 4.231006 -3.324829
v 6.978381 4.251006 -3.344827
v 7.003319 4.251006 -3.324268
v 6.977939 4.448563 -3.324829
v 7.003319 4.428563 -3.324268
v 6.978381 4.428563 -3.344827
v 6.312797 4.231006 -3.339519
v 6.287416 4.251006 -3.340080
v 6.313238 4.251006 -3.359517
v 6.312797 4.448563 -3.339519
v 6.313238 4.428563 -3.359517
v 6.287416 4.428563 -3.340080
v 6.114846 4.231006 3.323708
v 6.140226 4.251006 3.324268
v 6.114404 4.251006 3.343706
v 6.140226 4.428563 3.324268
v 6.114846 4.448563 3.323708
v 6.114404 4.428563 3.343706
v 5.449704 4.231006 3.309017
v 5.449262 4.251006 3.329015
v 5.424324 4.251006 3.308457
v 5.449704 4.448563 3.309017
v 5.424324 4.428563 3.308457
v 5.449262 4.428563 3.329015
v 6.262036 4.231006 -3.340640
v 6.262478 4.251006 -3.360638
v 6.287416 4.251006 -3.340080
v 6.262036 4.448563 -3.340640
v 6.287416 4.428563 -3.340080
v 6.262478 4.428563 -3.360638
v 5.596894 4.231006 -3.355331
v 5.571514 4.251006 -3.355891
v 5.597336 4.251006 -3.375329
v 5.596894 4.448563 -3.355331
v 5.597336 4.428563 -3.375329
v 5.571514 4.428563 -3.355891
v 5.398943 4.231006 3.307896
v 5.424324 4.251006 3.308457
v 5.398502 4.251006 3.327894
v 5.424324 4.428563 3.308457
v 5.398943 4.448563 3.307896
v 5.398502 4.428563 3.327894
v 4.733801 4.231006 3.293206
v 4.733359 4.251006 3.313204
v 4.708421 4.251006 3.292645
v 4.733801 4.448563 3.293206
v 4.708421 4.428563 3.292645
v 4.733359 4.428563 3.313204
v 5.546134 4.231006 -3.356452
v 5.546576 4.251006 -3.376450
v 5.571514 4.251006 -3.355891
v 5.546134 4.448563 -3.356452
v 5.571514 4.428563 -3.355891
v 5.546576 4.428563 -3.376450
v 4.880991 4.231006 -3.371142
v 4.855611 4.251006 -3.371703
v 4.881433 4.251006 -3.391140
v 4.880991 4.448563 -3.371142
v 4.881433 4.428563 -3.391140
v 4.855611 4.428563 -3.371703
v 4.683041 4.231006 3.292084
v 4.708421 4.251006 3.292645
v 4.682599 4.251006 3.312083
v 4.708421 4.428563 3.292645
v 4.683041 4.448563 3.292084
v 4.682599 4.428563 3.312083
v 4.017899 4.231006 3.277394
v 4.017457 4.251006 3.297392
v 3.992518 4.251006 3.276834
v 4.017899 4.448563 3.277394
v 3.992518 4.428563 3.276834
v 4.017457 4.428563 3.297392
v 4.830231 4.231006 -3.372264
v 4.830673 4.251006 -3.392262
v 4.855611 4.251006 -3.371703
v 4.830231 4.448563 -3.372264
v 4.855611 4.428563 -3.371703
v 4.830673 4.428563 -3.392262
v 4.165089 4.231006 -3.386954
v 4.139709 4.251006 -3.387515
v 4.165531 4.251006 -3.406952
v 4.165089 4.448563 -3.386954
v 4.165531 4.428563 -3.406952
v 4.139709 4.428563 -3.387515
v -9.851443 3.926402 0.282072
v -9.851443 4.296384 0.282072
v -9.851441 3.926402 -0.282072
v -9.851441 4.296384 -0.282072
v 15.469002 3.926402 0.282072
v 15.469002 4.296384 0.282072
v 15.469003 3.926402 -0.282072
v 15.469003 4.296384 -0.282072
v -9.851443 3.926402 -2.731785
v -9.851443 4.296384 -2.731785
v -9.851443 3.926402 -3.295928
v -9.851443 4.296384 -3.295928
v 15.469001 3.926402 -2.731785
v 15.469001 4.296384 -2.731785
v 15.469002 3.926402 -3.295928
v 15.469002 4.296384 -3.295928
v -9.851443 3.926402 3.329792
v -9.851443 4.296384 3.329792
v -9.851443 3.926402 2.765648
v -9.851443 4.296384 2.765648
v 15.469002 3.926402 3.329792
v 15.469002 4.296384 3.329792
v 15.469003 3.926402 2.765649
v 15.469003 4.296384 2.765649
v 10.923530 4.231006 3.293993
v 10.943444 4.251006 3.292144
v 10.925379 4.251006 3.313908
v 10.943444 4.428563 3.292144
v 10.923530 4.448563 3.293993
v 10.925379 4.428563 3.313908
v 10.401630 4.231006 3.342447
v 10.403480 4.251006 3.362361
v 10.381716 4.251006 3.344296
v 10.401630 4.448563 3.342447
v 10.381716 4.428563 3.344296
v 10.403480 4.428563 3.362361
v 10.307396 4.231006 -3.342447
v 10.305547 4.251006 -3.362361
v 10.327310 4.251006 -3.344296
v 10.307396 4.448563 -3.342447
v 10.327310 4.428563 -3.344296
v 10.305547 4.428563 -3.362361
v 9.785497 4.231006 -3.293993
v 9.765582 4.251006 -3.292145
v 9.783648 4.251006 -3.313908
v 9.785497 4.448563 -3.293993
v 9.783648 4.428563 -3.313908
v 9.765582 4.428563 -3.292145
v 12.499409 4.231006 3.332490
v 12.519409 4.251006 3.332490
v 12.499409 4.251006 3.352490
v 12.519409 4.428563 3.332490
v 12.499409 4.448563 3.332490
v 12.499409 4.428563 3.352490
v 11.975266 4.231006 3.332490
v 11.975266 4.251006 3.352490
v 11.955265 4.251006 3.332490
v 11.975266 4.448563 3.332490
v 11.955265 4.428563 3.332490
v 11.975266 4.428563 3.352490
v 12.499411 4.231006 -3.332490
v 12.499410 4.251006 -3.352490
v 12.519410 4.251006 -3.332490
v 12.499411 4.448563 -3.332490
v 12.519410 4.428563 -3.332490
v 12.499410 4.428563 -3.352490
v 11.975266 4.231006 -3.332490
v 11.955266 4.251006 -3.332490
v 11.975266 4.251006 -3.352490
v 11.975266 4.448563 -3.332490
v 11.975266 4.428563 -3.352490
v 11.955266 4.428563 -3.332490
v -8.405571 4.231006 3.339778
v -8.385584 4.251006 3.340500
v -8.406294 4.251006 3.359765
v -8.385584 4.428563 3.340500
v -8.405571 4.448563 3.339778
v -8.406294 4.428563 3.359765
v -8.929373 4.231006 3.320858
v -8.930094 4.251006 3.340844
v -8.949360 4.251006 3.320136
v -8.929373 4.448563 3.320858
v -8.949360 4.428563 3.320136
v -8.930094 4.428563 3.340844
v -8.164976 4.231006 -3.320858
v -8.164255 4.251006 -3.340845
v -8.144989 4.251006 -3.320136
v -8.164976 4.448563 -3.320858
v -8.144989 4.428563 -3.320136
v -8.164255 4.428563 -3.340845
v -8.688778 4.231006 -3.339778
v -8.708765 4.251006 -3.340500
v -8.688056 4.251006 -3.359765
v -8.688778 4.448563 -3.339778
v -8.688056 4.428563 -3.359765
v -8.708765 4.428563 -3.340500
v -9.251235 4.231006 3.309231
v -9.231248 4.251006 3.309953
v -9.251957 4.251006 3.329218
v -9.231248 4.428563 3.309953
v -9.251235 4.448563 3.309231
v -9.251957 4.428563 3.329218
v -9.775037 4.231006 3.290310
v -9.775760 4.251006 3.310297
v -9.795024 4.251006 3.289588
v -9.775037 4.448563 3.290310
v -9.795024 4.428563 3.289588
v -9.775760 4.428563 3.310297
v -9.010641 4.231006 -3.351405
v -9.009918 4.251006 -3.371392
v -8.990653 4.251006 -3.350682
v -9.010641 4.448563 -3.351405
v -8.990653 4.428563 -3.350682
v -9.009918 4.428563 -3.371392
v -9.534442 4.231006 -3.370325
v -9.554429 4.251006 -3.371047
v -9.533721 4.251006 -3.390312
v -9.534442 4.448563 -3.370325
v -9.533721 4.428563 -3.390312
v -9.554429 4.428563 -3.371047
v 2.631080 4.231006 3.324543
v 2.651073 4.251006 3.324022
v 2.631600 4.251006 3.344536
v 2.651073 4.428563 3.324022
v 2.631080 4.448563 3.324543
v 2.631600 4.428563 3.344536
v 2.107114 4.231006 3.338181
v 2.107635 4.251006 3.358174
v 2.087121 4.251006 3.338701
v 2.107114 4.448563 3.338181
v 2.087121 4.428563 3.338701
v 2.107635 4.428563 3.358174
v 2.457664 4.231006 -3.338181
v 2.457143 4.251006 -3.358174
v 2.477657 4.251006 -3.338701
v 2.457664 4.448563 -3.338181
v 2.477657 4.428563 -3.338701
v 2.457143 4.428563 -3.358174
v 1.933697 4.231006 -3.324543
v 1.913704 4.251006 -3.324022
v 1.933177 4.251006 -3.344536
v 1.933697 4.448563 -3.324543
v 1.933177 4.428563 -3.344536
v 1.913704 4.428563 -3.324022
v 1.684492 4.231006 3.337245
v 1.704487 4.251006 3.337664
v 1.684073 4.251006 3.357241
v 1.704487 4.428563 3.337664
v 1.684492 4.448563 3.337245
v 1.684073 4.428563 3.357241
v 1.160463 4.231006 3.326273
v 1.160044 4.251006 3.346269
v 1.140467 4.251006 3.325855
v 1.160463 4.448563 3.326273
v 1.140467 4.428563 3.325855
v 1.160044 4.428563 3.346269
v 1.824015 4.231006 -3.326273
v 1.824433 4.251006 -3.346269
v 1.844011 4.251006 -3.325855
v 1.824015 4.448563 -3.326273
v 1.844011 4.428563 -3.325855
v 1.824433 4.428563 -3.346269
v 1.299986 4.231006 -3.337245
v 1.279991 4.251006 -3.337664
v 1.300405 4.251006 -3.357241
v 1.299986 4.448563 -3.337245
v 1.300405 4.428563 -3.357241
v 1.279991 4.428563 -3.337664
v 1.216324 4.151084 -0.149288
v 1.236258 4.171084 -0.151407
v 1.216903 4.171084 -0.139532
v 1.236258 4.348640 -0.151407
v 1.216324 4.368640 -0.149288
v 1.216903 4.348640 -0.139532
v 1.122194 4.151084 -0.138548
v 1.123610 4.171084 -0.128888
v 1.102462 4.171084 -0.136233
v 1.122194 4.368640 -0.138548
v 1.102462 4.348640 -0.136233
v 1.123610 4.348640 -0.128888
v 1.130105 4.151084 -3.362411
v 1.129846 4.171084 -3.372048
v 1.150081 4.171084 -3.362947
v 1.130105 4.368640 -3.362411
v 1.150081 4.348640 -3.362947
v 1.129846 4.348640 -3.372048
v 0.607907 4.151084 -3.348399
v 0.587887 4.171084 -3.347882
v 0.606328 4.171084 -3.358001
v 0.607907 4.368640 -3.348399
v 0.606328 4.348640 -3.358001
v 0.587887 4.348640 -3.347882
v 0.893895 4.240607 3.367870
v 0.913661 4.260607 3.364820
v 0.896945 4.260607 3.387636
v 0.913661 4.438164 3.364820
v 0.893895 4.458164 3.367870
v 0.896945 4.438164 3.387636
v 0.375881 4.240607 3.447796
v 0.378931 4.260607 3.467562
v 0.356115 4.260607 3.450845
v 0.375881 4.458164 3.447796
v 0.356115 4.438164 3.450845
v 0.378931 4.438164 3.467562
v -0.122435 4.240607 -3.219164
v -0.125484 4.260607 -3.238930
v -0.102669 4.260607 -3.222214
v -0.122435 4.458164 -3.219164
v -0.102669 4.438164 -3.222214
v -0.125484 4.438164 -3.238930
v -0.640449 4.240607 -3.139239
v -0.660215 4.260607 -3.136189
v -0.643499 4.260607 -3.159005
v -0.640449 4.458164 -3.139239
v -0.643499 4.438164 -3.159005
v -0.660215 4.438164 -3.136189
v -1.855841 4.231006 3.324543
v -1.835848 4.251006 3.324023
v -1.855320 4.251006 3.344536
v -1.835848 4.428563 3.324023
v -1.855841 4.448563 3.324543
v -1.855320 4.428563 3.344536
v -2.379807 4.231006 3.338181
v -2.379287 4.251006 3.358174
v -2.399799 4.251006 3.338701
v -2.379807 4.448563 3.338181
v -2.399799 4.428563 3.338701
v -2.379287 4.428563 3.358174
v -2.029258 4.231006 -3.338180
v -2.029778 4.251006 -3.358174
v -2.009264 4.251006 -3.338701
v -2.029258 4.448563 -3.338180
v -2.009264 4.428563 -3.338701
v -2.029778 4.428563 -3.358174
v -2.553224 4.231006 -3.324543
v -2.573217 4.251006 -3.324022
v -2.553744 4.251006 -3.344536
v -2.553224 4.448563 -3.324543
v -2.553744 4.428563 -3.344536
v -2.573217 4.428563 -3.324022
v -2.921307 4.231006 3.324543
v -2.901314 4.251006 3.324022
v -2.920787 4.251006 3.344536
v -2.901314 4.428563 3.324022
v -2.921307 4.448563 3.324543
v -2.920787 4.428563 3.344536
v -3.445273 4.231006 3.338181
v -3.444753 4.251006 3.358174
v -3.465266 4.251006 3.338701
v -3.445273 4.448563 3.338181
v -3.465266 4.428563 3.338701
v -3.444753 4.428563 3.358174
v -3.094723 4.231006 -3.338181
v -3.095243 4.251006 -3.358174
v -3.074730 4.251006 -3.338701
v -3.094723 4.448563 -3.338181
v -3.074730 4.428563 -3.338701
v -3.095243 4.428563 -3.358174
v -3.618690 4.231006 -3.324543
v -3.638682 4.251006 -3.324022
v -3.619209 4.251006 -3.344536
v -3.618690 4.448563 -3.324543
v -3.619209 4.428563 -3.344536
v -3.638682 4.428563 -3.324022
v 6.855688 4.231006 3.360078
v 6.855688 4.448563 3.360078
v 6.139785 4.231006 3.344266
v 6.139785 4.448563 3.344266
v 7.003761 4.231006 -3.344266
v 7.003761 4.448563 -3.344266
v 6.287859 4.231006 -3.360078
v 6.287859 4.448563 -3.360078
v -4.808438 4.231006 3.339519
v -4.783057 4.251006 3.340080
v -4.808880 4.251006 3.359517
v -4.783057 4.428563 3.340080
v -4.808438 4.448563 3.339519
v -4.808880 4.428563 3.359517
v -5.473579 4.231006 3.324829
v -5.474021 4.251006 3.344827
v -5.498960 4.251006 3.324268
v -5.473579 4.448563 3.324829
v -5.498960 4.428563 3.324268
v -5.474021 4.428563 3.344827
v -4.661247 4.231006 -3.324829
v -4.660806 4.251006 -3.344827
v -4.635866 4.251006 -3.324268
v -4.661247 4.448563 -3.324829
v -4.635866 4.428563 -3.324268
v -4.660806 4.428563 -3.344827
v -5.326388 4.231006 -3.339520
v -5.351769 4.251006 -3.340080
v -5.325947 4.251006 -3.359518
v -5.326388 4.448563 -3.339520
v -5.325947 4.428563 -3.359518
v -5.351769 4.428563 -3.340080
v -5.524340 4.231006 3.323707
v -5.498960 4.251006 3.324268
v -5.524781 4.251006 3.343705
v -5.498960 4.428563 3.324268
v -5.524340 4.448563 3.323707
v -5.524781 4.428563 3.343705
v -6.189483 4.231006 3.309017
v -6.189924 4.251006 3.329015
v -6.214863 4.251006 3.308456
v -6.189483 4.448563 3.309017
v -6.214863 4.428563 3.308456
v -6.189924 4.428563 3.329015
v -5.377149 4.231006 -3.340641
v -5.376707 4.251006 -3.360639
v -5.351769 4.251006 -3.340080
v -5.377149 4.448563 -3.340641
v -5.351769 4.428563 -3.340080
v -5.376707 4.428563 -3.360639
v -6.042292 4.231006 -3.355331
v -6.067672 4.251006 -3.355891
v -6.041850 4.251006 -3.375329
v -6.042292 4.448563 -3.355331
v -6.041850 4.428563 -3.375329
v -6.067672 4.428563 -3.355891
v -6.240243 4.231006 3.307896
v -6.214863 4.251006 3.308456
v -6.240685 4.251006 3.327894
v -6.214863 4.428563 3.308456
v -6.240243 4.448563 3.307896
v -6.240685 4.428563 3.327894
v -6.905385 4.231006 3.293205
v -6.905827 4.251006 3.313203
v -6.930766 4.251006 3.292645
v -6.905385 4.448563 3.293205
v -6.930766 4.428563 3.292645
v -6.905827 4.428563 3.313203
v -6.093052 4.231006 -3.356452
v -6.092610 4.251006 -3.376450
v -6.067672 4.251006 -3.355891
v -6.093052 4.448563 -3.356452
v -6.067672 4.428563 -3.355891
v -6.092610 4.428563 -3.376450
v -6.758194 4.231006 -3.371143
v -6.783575 4.251006 -3.371703
v -6.757752 4.251006 -3.391141
v -6.758194 4.448563 -3.371143
v -6.757752 4.428563 -3.391141
v -6.783575 4.428563 -3.371703
v -6.956145 4.231006 3.292084
v -6.930764 4.251006 3.292645
v -6.956587 4.251006 3.312082
v -6.930764 4.428563 3.292645
v -6.956145 4.448563 3.292084
v -6.956587 4.428563 3.312082
v -7.621287 4.231006 3.277394
v -7.621729 4.251006 3.297392
v -7.646667 4.251006 3.276833
v -7.621287 4.448563 3.277394
v -7.646667 4.428563 3.276833
v -7.621729 4.428563 3.297392
v -6.808954 4.231006 -3.372264
v -6.808513 4.251006 -3.392262
v -6.783573 4.251006 -3.371703
v -6.808954 4.448563 -3.372264
v -6.783573 4.428563 -3.371703
v -6.808513 4.428563 -3.392262
v -7.474096 4.231006 -3.386954
v -7.499476 4.251006 -3.387515
v -7.473655 4.251006 -3.406952
v -7.474096 4.448563 -3.386954
v -7.473655 4.428563 -3.406952
v -7.499476 4.428563 -3.387515
v 7.741839 4.417281 3.392118
v 7.741839 4.226289 3.392118
v 8.104885 4.417281 -3.419867
v 8.104885 4.226289 -3.419867
v 8.262509 4.417281 3.419867
v 8.262509 4.226289 3.419867
v 8.625555 4.417281 -3.392118
v 8.625555 4.226289 -3.392118
v 8.503770 4.417281 3.392118
v 8.503770 4.226289 3.392118
v 8.866816 4.417281 -3.419867
v 8.866816 4.226289 -3.419867
v 9.024440 4.417281 3.419867
v 9.024440 4.226289 3.419867
v 9.387486 4.417281 -3.392118
v 9.387486 4.226289 -3.392118
v 5.151882 0.532895 3.235447
v 5.151882 4.144857 3.235447
v 5.151882 0.532895 2.713705
v 5.151882 4.144857 2.713705
v 5.673624 0.532895 3.235447
v 5.673624 4.144857 3.235447
v 5.673625 0.532895 2.713705
v 5.673625 4.144857 2.713705
v 5.218809 2.730058 3.138411
v 6.597392 4.210083 3.138411
v 5.218809 2.730058 2.810741
v 6.597392 4.210083 2.810741
v 5.458578 2.506723 3.138411
v 6.837162 3.986748 3.138411
v 5.458578 2.506723 2.810741
v 6.837162 3.986748 2.810741
v 5.606697 2.730058 3.138411
v 4.228114 4.210083 3.138411
v 5.606697 2.730058 2.810741
v 4.228114 4.210083 2.810741
v 5.366928 2.506723 3.138411
v 3.988345 3.986748 3.138411
v 5.366928 2.506723 2.810741
v 3.988345 3.986748 2.810741
v 5.296114 0.532895 -3.294982
v 5.296114 4.144857 -3.294982
v 5.273079 0.532895 -2.773747
v 5.273079 4.144857 -2.773747
v 5.817348 0.532895 -3.271946
v 5.817348 4.144857 -3.271946
v 5.794312 0.532895 -2.750712
v 5.794312 4.144857 -2.750712
v 5.358692 2.730058 -3.195085
v 6.735931 4.210083 -3.134219
v 5.344225 2.730058 -2.867734
v 6.721464 4.210083 -2.806869
v 5.598227 2.506723 -3.184499
v 6.975466 3.986749 -3.123633
v 5.583760 2.506723 -2.857149
v 6.960999 3.986749 -2.796283
v 5.746202 2.730058 -3.177959
v 4.368963 4.210083 -3.238825
v 5.731735 2.730058 -2.850609
v 4.354496 4.210083 -2.911474
v 5.506667 2.506723 -3.188545
v 4.129428 3.986748 -3.249411
v 5.492200 2.506723 -2.861194
v 4.114961 3.986748 -2.922060
v -0.407163 0.532895 3.235447
v -0.407163 4.144857 3.235447
v -0.407163 0.532895 2.713705
v -0.407163 4.144857 2.713705
v 0.114581 0.532895 3.235447
v 0.114581 4.144857 3.235447
v 0.114580 0.532895 2.713705
v 0.114580 4.144857 2.713705
v -0.340235 2.730058 3.138411
v 1.038348 4.210083 3.138411
v -0.340235 2.730058 2.810741
v 1.038348 4.210083 2.810741
v -0.100466 2.506723 3.138411
v 1.278117 3.986748 3.138411
v -0.100466 2.506723 2.810741
v 1.278117 3.986748 2.810741
v 0.047653 2.730058 3.138411
v -1.330930 4.210083 3.138411
v 0.047653 2.730058 2.810741
v -1.330930 4.210083 2.810741
v -0.192116 2.506723 3.138411
v -1.570700 3.986748 3.138411
v -0.192116 2.506723 2.810741
v -1.570699 3.986748 2.810741
v -0.262930 0.532895 -3.294982
v -0.262930 4.144857 -3.294982
v -0.285966 0.532895 -2.773747
v -0.285966 4.144857 -2.773747
v 0.258304 0.532895 -3.271946
v 0.258304 4.144857 -3.271946
v 0.235269 0.532895 -2.750712
v 0.235269 4.144857 -2.750712
v -0.200352 2.730058 -3.195084
v 1.176887 4.210083 -3.134219
v -0.214819 2.730058 -2.867734
v 1.162420 4.210083 -2.806869
v 0.039183 2.506723 -3.184499
v 1.416422 3.986749 -3.123633
v 0.024716 2.506723 -2.857149
v 1.401955 3.986749 -2.796283
v 0.187158 2.730058 -3.177959
v -1.190081 4.210083 -3.238825
v 0.172691 2.730058 -2.850608
v -1.204548 4.210083 -2.911474
v -0.052378 2.506723 -3.188545
v -1.429616 3.986748 -3.249410
v -0.066844 2.506723 -2.861194
v -1.444083 3.986748 -2.922060
v -6.726916 0.532895 3.235448
v -6.726916 4.144857 3.235448
v -6.726916 0.532895 2.713705
v -6.726916 4.144857 2.713705
v -6.205175 0.532895 3.235447
v -6.205175 4.144857 3.235447
v -6.205174 0.532895 2.713705
v -6.205174 4.144857 2.713705
v -6.659990 2.730058 3.138411
v -5.281406 4.210083 3.138411
v -6.659990 2.730058 2.810741
v -5.281406 4.210083 2.810741
v -6.420220 2.506723 3.138411
v -5.041637 3.986748 3.138411
v -6.420221 2.506723 2.810741
v -5.041637 3.986748 2.810741
v -6.272102 2.730058 3.138411
v -7.650685 4.210083 3.138411
v -6.272102 2.730058 2.810741
v -7.650685 4.210083 2.810741
v -6.511870 2.506723 3.138411
v -7.890453 3.986748 3.138411
v -6.511870 2.506723 2.810741
v -7.890453 3.986748 2.810741
v -6.582685 0.532895 -3.294981
v -6.582685 4.144857 -3.294981
v -6.605720 0.532895 -2.773747
v -6.605720 4.144857 -2.773747
v -6.061451 0.532895 -3.271946
v -6.061451 4.144857 -3.271946
v -6.084487 0.532895 -2.750711
v -6.084487 4.144857 -2.750711
v -6.520107 2.730058 -3.195085
v -5.142868 4.210083 -3.134219
v -6.534575 2.730058 -2.867734
v -5.157335 4.210083 -2.806868
v -6.280572 2.506723 -3.184499
v -4.903332 3.986749 -3.123633
v -6.295038 2.506723 -2.857149
v -4.917799 3.986749 -2.796283
v -6.132596 2.730058 -3.177959
v -7.509836 4.210083 -3.238825
v -6.147063 2.730058 -2.850608
v -7.524302 4.210083 -2.911474
v -6.372132 2.506723 -3.188545
v -7.749371 3.986748 -3.249410
v -6.386600 2.506723 -2.861194
v -7.763838 3.986748 -2.922060
vt 0.397983 0.750746
vt 0.602017 0.750746
vt 0.602017 0.999254
vt 0.397983 0.999254
vt 0.397983 0.508863
vt 0.602017 0.508863
vt 0.602018 0.741137
vt 0.397982 0.741137
vt 0.625746 0.508863
vt 0.874254 0.508863
vt 0.874254 0.741137
vt 0.625746 0.741137
vt 0.397983 0.008863
vt 0.602017 0.008863
vt 0.602018 0.241137
vt 0.397982 0.241137
vt 0.397983 0.250746
vt 0.602017 0.250746
vt 0.602017 0.499254
vt 0.397983 0.499254
vt 0.125746 0.741137
vt 0.125746 0.750000
vt 0.125000 0.741137
vt 0.625000 0.999254
vt 0.602017 1.000000
vt 0.125746 0.508863
vt 0.125000 0.508863
vt 0.125746 0.500000
vt 0.625000 0.250746
vt 0.602017 0.250000
vt 0.602017 0.250000
vt 0.374254 0.741137
vt 0.375000 0.741137
vt 0.374254 0.750000
vt 0.625000 0.750746
vt 0.602017 0.750000
vt 0.602017 0.750000
vt 0.374254 0.508863
vt 0.374254 0.500000
vt 0.375000 0.508863
vt 0.625000 0.508863
vt 0.602017 0.500000
vt 0.602017 0.500000
vt 0.397983 0.000000
vt 0.602017 0.000000
vt 0.625000 0.008863
vt 0.625000 0.241137
vt 0.625000 0.499254
vt 0.397983 0.750746
vt 0.602017 0.750746
vt 0.602017 0.999254
vt 0.397983 0.999254
vt 0.397983 0.508863
vt 0.602017 0.508863
vt 0.602018 0.741137
vt 0.397982 0.741137
vt 0.625746 0.508863
vt 0.874254 0.508863
vt 0.874254 0.741137
vt 0.625746 0.741137
vt 0.397983 0.008863
vt 0.602017 0.008863
vt 0.602018 0.241137
vt 0.397982 0.241137
vt 0.397983 0.250746
vt 0.602017 0.250746
vt 0.602017 0.499254
vt 0.397983 0.499254
vt 0.125746 0.741137
vt 0.125746 0.750000
vt 0.125000 0.741137
vt 0.625000 0.999254
vt 0.602017 1.000000
vt 0.125746 0.508863
vt 0.125000 0.508863
vt 0.125746 0.500000
vt 0.625000 0.250746
vt 0.602017 0.250000
vt 0.602017 0.250000
vt 0.374254 0.741137
vt 0.375000 0.741137
vt 0.374254 0.750000
vt 0.625000 0.750746
vt 0.602017 0.750000
vt 0.602017 0.750000
vt 0.374254 0.508863
vt 0.374254 0.500000
vt 0.375000 0.508863
vt 0.625000 0.508863
vt 0.602017 0.500000
vt 0.602017 0.500000
vt 0.397983 0.000000
vt 0.602017 0.000000
vt 0.625000 0.008863
vt 0.625000 0.241137
vt 0.625000 0.499254
vt 0.397983 0.750746
vt 0.602017 0.750746
vt 0.602017 0.999254
vt 0.397983 0.999254
vt 0.397983 0.508863
vt 0.602017 0.508863
vt 0.602018 0.741137
vt 0.397982 0.741137
vt 0.625746 0.508863
vt 0.874254 0.508863
vt 0.874254 0.741137
vt 0.625746 0.741137
vt 0.397983 0.008863
vt 0.602017 0.008863
vt 0.602018 0.241137
vt 0.397982 0.241137
vt 0.397983 0.250746
vt 0.602017 0.250746
vt 0.602017 0.499254
vt 0.397983 0.499254
vt 0.125746 0.741137
vt 0.125746 0.750000
vt 0.125000 0.741137
vt 0.625000 0.999254
vt 0.602017 1.000000
vt 0.125746 0.508863
vt 0.125000 0.508863
vt 0.125746 0.500000
vt 0.625000 0.250746
vt 0.602017 0.250000
vt 0.602017 0.250000
vt 0.374254 0.741137
vt 0.375000 0.741137
vt 0.374254 0.750000
vt 0.625000 0.750746
vt 0.602017 0.750000
vt 0.602017 0.750000
vt 0.374254 0.508863
vt 0.374254 0.500000
vt 0.375000 0.508863
vt 0.625000 0.508863
vt 0.602017 0.500000
vt 0.602017 0.500000
vt 0.397983 0.000000
vt 0.602017 0.000000
vt 0.625000 0.008863
vt 0.625000 0.241137
vt 0.625000 0.499254
vt 0.397983 0.750746
vt 0.602017 0.750746
vt 0.602017 0.999254
vt 0.397983 0.999254
vt 0.397983 0.508863
vt 0.602017 0.508863
vt 0.602018 0.741137
vt 0.397982 0.741137
vt 0.625746 0.508863
vt 0.874254 0.508863
vt 0.874254 0.741137
vt 0.625746 0.741137
vt 0.397983 0.008863
vt 0.602017 0.008863
vt 0.602018 0.241137
vt 0.397982 0.241137
vt 0.397983 0.250746
vt 0.602017 0.250746
vt 0.602017 0.499254
vt 0.397983 0.499254
vt 0.125746 0.741137
vt 0.125746 0.750000
vt 0.125000 0.741137
vt 0.625000 0.999254
vt 0.602017 1.000000
vt 0.125746 0.508863
vt 0.125000 0.508863
vt 0.125746 0.500000
vt 0.625000 0.250746
vt 0.602017 0.250000
vt 0.602017 0.250000
vt 0.374254 0.741137
vt 0.375000 0.741137
vt 0.374254 0.750000
vt 0.625000 0.750746
vt 0.602017 0.750000
vt 0.602017 0.750000
vt 0.374254 0.508863
vt 0.374254 0.500000
vt 0.375000 0.508863
vt 0.625000 0.508863
vt 0.602017 0.500000
vt 0.602017 0.500000
vt 0.397983 0.000000
vt 0.602017 0.000000
vt 0.625000 0.008863
vt 0.625000 0.241137
vt 0.625000 0.499254
vt 0.375000 0.000000
vt 0.625000 0.000000
vt 0.625000 0.250000
vt 0.375000 0.250000
vt 0.625000 0.500000
vt 0.375000 0.500000
vt 0.625000 0.750000
vt 0.375000 0.750000
vt 0.625000 1.000000
vt 0.375000 1.000000
vt 0.125000 0.500000
vt 0.125000 0.750000
vt 0.875000 0.500000
vt 0.875000 0.750000
vt 0.375000 0.000000
vt 0.625000 0.000000
vt 0.625000 0.250000
vt 0.375000 0.250000
vt 0.625000 0.500000
vt 0.375000 0.500000
vt 0.625000 0.750000
vt 0.375000 0.750000
vt 0.625000 1.000000
vt 0.375000 1.000000
vt 0.125000 0.500000
vt 0.125000 0.750000
vt 0.875000 0.500000
vt 0.875000 0.750000
vt 0.375000 0.000000
vt 0.625000 0.000000
vt 0.625000 0.250000
vt 0.375000 0.250000
vt 0.625000 0.500000
vt 0.375000 0.500000
vt 0.625000 0.750000
vt 0.375000 0.750000
vt 0.625000 1.000000
vt 0.375000 1.000000
vt 0.125000 0.500000
vt 0.125000 0.750000
vt 0.875000 0.500000
vt 0.875000 0.750000
vt 0.397983 0.750746
vt 0.602017 0.750746
vt 0.602017 0.999254
vt 0.397983 0.999254
vt 0.397983 0.508863
vt 0.602017 0.508863
vt 0.602018 0.741137
vt 0.397982 0.741137
vt 0.625746 0.508863
vt 0.874254 0.508863
vt 0.874254 0.741137
vt 0.625746 0.741137
vt 0.397983 0.008863
vt 0.602017 0.008863
vt 0.602018 0.241137
vt 0.397982 0.241137
vt 0.397983 0.250746
vt 0.602017 0.250746
vt 0.602017 0.499254
vt 0.397983 0.499254
vt 0.125746 0.741137
vt 0.125746 0.750000
vt 0.125000 0.741137
vt 0.625000 0.999254
vt 0.602017 1.000000
vt 0.125746 0.508863
vt 0.125000 0.508863
vt 0.125746 0.500000
vt 0.625000 0.250746
vt 0.602017 0.250000
vt 0.602017 0.250000
vt 0.374254 0.741137
vt 0.375000 0.741137
vt 0.374254 0.750000
vt 0.625000 0.750746
vt 0.602017 0.750000
vt 0.602017 0.750000
vt 0.374254 0.508863
vt 0.374254 0.500000
vt 0.375000 0.508863
vt 0.625000 0.508863
vt 0.602017 0.500000
vt 0.602017 0.500000
vt 0.397983 0.000000
vt 0.602017 0.000000
vt 0.625000 0.008863
vt 0.625000 0.241137
vt 0.625000 0.499254
vt 0.397983 0.750746
vt 0.602017 0.750746
vt 0.602017 0.999254
vt 0.397983 0.999254
vt 0.397983 0.508863
vt 0.602018 0.508863
vt 0.602018 0.741137
vt 0.397983 0.741137
vt 0.625746 0.508863
vt 0.874254 0.508863
vt 0.874254 0.741137
vt 0.625746 0.741137
vt 0.397983 0.008863
vt 0.602018 0.008863
vt 0.602018 0.241137
vt 0.397983 0.241137
vt 0.397983 0.250746
vt 0.602017 0.250746
vt 0.602017 0.499254
vt 0.397983 0.499254
vt 0.125746 0.741137
vt 0.125746 0.750000
vt 0.125000 0.741137
vt 0.625000 0.999254
vt 0.602018 1.000000
vt 0.125746 0.508863
vt 0.125000 0.508863
vt 0.125746 0.500000
vt 0.625000 0.250746
vt 0.602018 0.250000
vt 0.602018 0.250000
vt 0.374254 0.741137
vt 0.375000 0.741137
vt 0.374254 0.750000
vt 0.625000 0.750746
vt 0.602018 0.750000
vt 0.602018 0.750000
vt 0.374254 0.508863
vt 0.374254 0.500000
vt 0.375000 0.508863
vt 0.625000 0.508863
vt 0.625000 0.508863
vt 0.602018 0.500000
vt 0.397983 0.000000
vt 0.602018 0.000000
vt 0.625000 0.008863
vt 0.625000 0.241137
vt 0.625000 0.499254
vt 0.397983 0.750746
vt 0.602017 0.750746
vt 0.602017 0.999254
vt 0.397983 0.999254
vt 0.397983 0.508863
vt 0.602017 0.508863
vt 0.602018 0.741137
vt 0.397982 0.741137
vt 0.625746 0.508863
vt 0.874254 0.508863
vt 0.874254 0.741137
vt 0.625746 0.741137
vt 0.397983 0.008863
vt 0.602017 0.008863
vt 0.602018 0.241137
vt 0.397982 0.241137
vt 0.397983 0.250746
vt 0.602017 0.250746
vt 0.602017 0.499254
vt 0.397983 0.499254
vt 0.125746 0.741137
vt 0.125746 0.750000
vt 0.125000 0.741137
vt 0.625000 0.999254
vt 0.602017 1.000000
vt 0.125746 0.508863
vt 0.125000 0.508863
vt 0.125746 0.500000
vt 0.625000 0.250746
vt 0.602017 0.250000
vt 0.602017 0.250000
vt 0.374254 0.741137
vt 0.375000 0.741137
vt 0.374254 0.750000
vt 0.625000 0.750746
vt 0.602017 0.750000
vt 0.602017 0.750000
vt 0.374254 0.508863
vt 0.374254 0.500000
vt 0.375000 0.508863
vt 0.625000 0.508863
vt 0.602017 0.500000
vt 0.602017 0.500000
vt 0.397983 0.000000
vt 0.602017 0.000000
vt 0.625000 0.008863
vt 0.625000 0.241137
vt 0.625000 0.499254
vt 0.397983 0.750746
vt 0.602017 0.750746
vt 0.602017 0.999254
vt 0.397983 0.999254
vt 0.397983 0.508863
vt 0.602017 0.508863
vt 0.602018 0.741137
vt 0.397982 0.741137
vt 0.625746 0.508863
vt 0.874254 0.508863
vt 0.874254 0.741137
vt 0.625746 0.741137
vt 0.397983 0.008863
vt 0.602017 0.008863
vt 0.602018 0.241137
vt 0.397982 0.241137
vt 0.397983 0.250746
vt 0.602017 0.250746
vt 0.602017 0.499254
vt 0.397983 0.499254
vt 0.125746 0.741137
vt 0.125746 0.750000
vt 0.125000 0.741137
vt 0.625000 0.999254
vt 0.602017 1.000000
vt 0.125746 0.508863
vt 0.125000 0.508863
vt 0.125746 0.500000
vt 0.625000 0.250746
vt 0.602017 0.250000
vt 0.602017 0.250000
vt 0.374254 0.741137
vt 0.375000 0.741137
vt 0.374254 0.750000
vt 0.625000 0.750746
vt 0.602017 0.750000
vt 0.602017 0.750000
vt 0.374254 0.508863
vt 0.374254 0.500000
vt 0.375000 0.508863
vt 0.625000 0.508863
vt 0.602017 0.500000
vt 0.602017 0.500000
vt 0.397983 0.000000
vt 0.602017 0.000000
vt 0.625000 0.008863
vt 0.625000 0.241137
vt 0.625000 0.499254
vt 0.397983 0.750746
vt 0.602017 0.750746
vt 0.602017 0.999254
vt 0.397983 0.999254
vt 0.397983 0.508863
vt 0.602017 0.508863
vt 0.602018 0.741137
vt 0.397982 0.741137
vt 0.625746 0.508863
vt 0.874254 0.508863
vt 0.874254 0.741137
vt 0.625746 0.741137
vt 0.397983 0.008863
vt 0.602017 0.008863
vt 0.602018 0.241137
vt 0.397982 0.241137
vt 0.397983 0.250746
vt 0.602017 0.250746
vt 0.602017 0.499254
vt 0.397983 0.499254
vt 0.125746 0.741137
vt 0.125746 0.750000
vt 0.125000 0.741137
vt 0.625000 0.999254
vt 0.602017 1.000000
vt 0.125746 0.508863
vt 0.125000 0.508863
vt 0.125746 0.500000
vt 0.625000 0.250746
vt 0.602017 0.250000
vt 0.602017 0.250000
vt 0.374254 0.741137
vt 0.375000 0.741137
vt 0.374254 0.750000
vt 0.625000 0.750746
vt 0.602017 0.750000
vt 0.602017 0.750000
vt 0.374254 0.508863
vt 0.374254 0.500000
vt 0.375000 0.508863
vt 0.625000 0.508863
vt 0.602017 0.500000
vt 0.602017 0.500000
vt 0.397983 0.000000
vt 0.602017 0.000000
vt 0.625000 0.008863
vt 0.625000 0.241137
vt 0.625000 0.499254
vt 0.397983 0.750746
vt 0.602017 0.750746
vt 0.602017 0.999254
vt 0.397983 0.999254
vt 0.397983 0.508863
vt 0.602017 0.508863
vt 0.602018 0.741137
vt 0.397982 0.741137
vt 0.625746 0.508863
vt 0.874254 0.508863
vt 0.874254 0.741137
vt 0.625746 0.741137
vt 0.397983 0.008863
vt 0.602017 0.008863
vt 0.602018 0.241137
vt 0.397982 0.241137
vt 0.397983 0.250746
vt 0.602017 0.250746
vt 0.602017 0.499254
vt 0.397983 0.499254
vt 0.125746 0.741137
vt 0.125746 0.750000
vt 0.125000 0.741137
vt 0.625000 0.999254
vt 0.602017 1.000000
vt 0.125746 0.508863
vt 0.125000 0.508863
vt 0.125746 0.500000
vt 0.625000 0.250746
vt 0.602017 0.250000
vt 0.602017 0.250000
vt 0.374254 0.741137
vt 0.375000 0.741137
vt 0.374254 0.750000
vt 0.625000 0.750746
vt 0.602017 0.750000
vt 0.602017 0.750000
vt 0.374254 0.508863
vt 0.374254 0.500000
vt 0.375000 0.508863
vt 0.625000 0.508863
vt 0.602017 0.500000
vt 0.602017 0.500000
vt 0.397983 0.000000
vt 0.602017 0.000000
vt 0.625000 0.008863
vt 0.625000 0.241137
vt 0.625000 0.499254
vt 0.397983 0.750746
vt 0.602017 0.750746
vt 0.602017 0.999254
vt 0.397983 0.999254
vt 0.397983 0.508863
vt 0.602017 0.508863
vt 0.602018 0.741137
vt 0.397982 0.741137
vt 0.625744 0.509038
vt 0.874250 0.536578
vt 0.874247 0.713336
vt 0.625745 0.740967
vt 0.397983 0.037001
vt 0.602017 0.037001
vt 0.602018 0.212999
vt 0.397983 0.212999
vt 0.397983 0.250742
vt 0.602017 0.250742
vt 0.602017 0.499258
vt 0.397982 0.499258
vt 0.125753 0.713336
vt 0.125746 0.750000
vt 0.125000 0.712999
vt 0.625000 0.999377
vt 0.602017 1.000000
vt 0.125750 0.536578
vt 0.125000 0.537001
vt 0.125742 0.500000
vt 0.625000 0.250832
vt 0.602018 0.250000
vt 0.602017 0.250000
vt 0.374255 0.740967
vt 0.375000 0.741137
vt 0.374254 0.750000
vt 0.625000 0.750746
vt 0.602017 0.750000
vt 0.602017 0.750000
vt 0.374256 0.509038
vt 0.374258 0.500000
vt 0.375000 0.508863
vt 0.625000 0.509449
vt 0.602017 0.500000
vt 0.602018 0.500000
vt 0.397983 0.000000
vt 0.602017 0.000000
vt 0.625000 0.030925
vt 0.625000 0.208503
vt 0.625000 0.499209
vt 0.397983 0.750746
vt 0.602017 0.750746
vt 0.602017 0.999254
vt 0.397983 0.999254
vt 0.397983 0.508863
vt 0.602017 0.508863
vt 0.602018 0.741137
vt 0.397982 0.741137
vt 0.625746 0.508863
vt 0.874254 0.508863
vt 0.874254 0.741137
vt 0.625746 0.741137
vt 0.397983 0.008863
vt 0.602017 0.008863
vt 0.602018 0.241137
vt 0.397982 0.241137
vt 0.397983 0.250746
vt 0.602017 0.250746
vt 0.602017 0.499254
vt 0.397983 0.499254
vt 0.125746 0.741137
vt 0.125746 0.750000
vt 0.125000 0.741137
vt 0.625000 0.999254
vt 0.602017 1.000000
vt 0.125746 0.508863
vt 0.125000 0.508863
vt 0.125746 0.500000
vt 0.625000 0.250746
vt 0.602017 0.250000
vt 0.602017 0.250000
vt 0.374254 0.741137
vt 0.375000 0.741137
vt 0.374254 0.750000
vt 0.625000 0.750746
vt 0.602017 0.750000
vt 0.602017 0.750000
vt 0.374254 0.508863
vt 0.374254 0.500000
vt 0.375000 0.508863
vt 0.625000 0.508863
vt 0.602017 0.500000
vt 0.602017 0.500000
vt 0.397983 0.000000
vt 0.602017 0.000000
vt 0.625000 0.008863
vt 0.625000 0.241137
vt 0.625000 0.499254
vt 0.397983 0.750746
vt 0.602017 0.750746
vt 0.602017 0.999254
vt 0.397983 0.999254
vt 0.397983 0.508863
vt 0.602017 0.508863
vt 0.602018 0.741137
vt 0.397982 0.741137
vt 0.625746 0.508863
vt 0.874254 0.508863
vt 0.874254 0.741137
vt 0.625746 0.741137
vt 0.397983 0.008863
vt 0.602017 0.008863
vt 0.602018 0.241137
vt 0.397982 0.241137
vt 0.397983 0.250746
vt 0.602017 0.250746
vt 0.602017 0.499254
vt 0.397983 0.499254
vt 0.125746 0.741137
vt 0.125746 0.750000
vt 0.125000 0.741137
vt 0.625000 0.999254
vt 0.602017 1.000000
vt 0.125746 0.508863
vt 0.125000 0.508863
vt 0.125746 0.500000
vt 0.625000 0.250746
vt 0.602017 0.250000
vt 0.602017 0.250000
vt 0.374254 0.741137
vt 0.375000 0.741137
vt 0.374254 0.750000
vt 0.625000 0.750746
vt 0.602017 0.750000
vt 0.602017 0.750000
vt 0.374254 0.508863
vt 0.374254 0.500000
vt 0.375000 0.508863
vt 0.625000 0.508863
vt 0.602017 0.500000
vt 0.602017 0.500000
vt 0.397983 0.000000
vt 0.602017 0.000000
vt 0.625000 0.008863
vt 0.625000 0.241137
vt 0.625000 0.499254
vt 0.397983 0.750746
vt 0.602017 0.750746
vt 0.602017 0.999254
vt 0.397983 0.999254
vt 0.397983 0.508863
vt 0.602017 0.508863
vt 0.602018 0.741137
vt 0.397982 0.741137
vt 0.625746 0.508863
vt 0.874254 0.508863
vt 0.874254 0.741137
vt 0.625746 0.741137
vt 0.397983 0.008863
vt 0.602017 0.008863
vt 0.602018 0.241137
vt 0.397982 0.241137
vt 0.397983 0.250746
vt 0.602017 0.250746
vt 0.602017 0.499254
vt 0.397983 0.499254
vt 0.125746 0.741137
vt 0.125746 0.750000
vt 0.125000 0.741137
vt 0.625000 0.999254
vt 0.602017 1.000000
vt 0.125746 0.508863
vt 0.125000 0.508863
vt 0.125746 0.500000
vt 0.625000 0.250746
vt 0.602017 0.250000
vt 0.602017 0.250000
vt 0.374254 0.741137
vt 0.375000 0.741137
vt 0.374254 0.750000
vt 0.625000 0.750746
vt 0.602017 0.750000
vt 0.602017 0.750000
vt 0.374254 0.508863
vt 0.374254 0.500000
vt 0.375000 0.508863
vt 0.625000 0.508863
vt 0.602017 0.500000
vt 0.602017 0.500000
vt 0.397983 0.000000
vt 0.602017 0.000000
vt 0.625000 0.008863
vt 0.625000 0.241137
vt 0.625000 0.499254
vt 0.375000 0.000000
vt 0.625000 0.000000
vt 0.625000 0.250000
vt 0.375000 0.250000
vt 0.625000 0.500000
vt 0.375000 0.500000
vt 0.625000 0.750000
vt 0.375000 0.750000
vt 0.625000 1.000000
vt 0.375000 1.000000
vt 0.125000 0.500000
vt 0.125000 0.750000
vt 0.875000 0.500000
vt 0.875000 0.750000
vt 0.397983 0.750746
vt 0.602017 0.750746
vt 0.602017 0.999254
vt 0.397983 0.999254
vt 0.397983 0.508863
vt 0.602017 0.508863
vt 0.602018 0.741137
vt 0.397982 0.741137
vt 0.625746 0.508863
vt 0.874254 0.508863
vt 0.874254 0.741137
vt 0.625746 0.741137
vt 0.397983 0.008863
vt 0.602017 0.008863
vt 0.602018 0.241137
vt 0.397982 0.241137
vt 0.397983 0.250746
vt 0.602017 0.250746
vt 0.602017 0.499254
vt 0.397983 0.499254
vt 0.125746 0.741137
vt 0.125746 0.750000
vt 0.125000 0.741137
vt 0.625000 0.999254
vt 0.602017 1.000000
vt 0.125746 0.508863
vt 0.125000 0.508863
vt 0.125746 0.500000
vt 0.625000 0.250746
vt 0.602017 0.250000
vt 0.602017 0.250000
vt 0.374254 0.741137
vt 0.375000 0.741137
vt 0.374254 0.750000
vt 0.625000 0.750746
vt 0.602017 0.750000
vt 0.602017 0.750000
vt 0.374254 0.508863
vt 0.374254 0.500000
vt 0.375000 0.508863
vt 0.625000 0.508863
vt 0.602017 0.500000
vt 0.602017 0.500000
vt 0.397983 0.000000
vt 0.602017 0.000000
vt 0.625000 0.008863
vt 0.625000 0.241137
vt 0.625000 0.499254
vt 0.397983 0.750746
vt 0.602017 0.750746
vt 0.602017 0.999254
vt 0.397983 0.999254
vt 0.397983 0.508863
vt 0.602017 0.508863
vt 0.602018 0.741137
vt 0.397982 0.741137
vt 0.625746 0.508863
vt 0.874254 0.508863
vt 0.874254 0.741137
vt 0.625746 0.741137
vt 0.397983 0.008863
vt 0.602017 0.008863
vt 0.602018 0.241137
vt 0.397982 0.241137
vt 0.397983 0.250746
vt 0.602017 0.250746
vt 0.602017 0.499254
vt 0.397983 0.499254
vt 0.125746 0.741137
vt 0.125746 0.750000
vt 0.125000 0.741137
vt 0.625000 0.999254
vt 0.602017 1.000000
vt 0.125746 0.508863
vt 0.125000 0.508863
vt 0.125746 0.500000
vt 0.625000 0.250746
vt 0.602017 0.250000
vt 0.602017 0.250000
vt 0.374254 0.741137
vt 0.375000 0.741137
vt 0.374254 0.750000
vt 0.625000 0.750746
vt 0.602017 0.750000
vt 0.602017 0.750000
vt 0.374254 0.508863
vt 0.374254 0.500000
vt 0.375000 0.508863
vt 0.625000 0.508863
vt 0.602017 0.500000
vt 0.602017 0.500000
vt 0.397983 0.000000
vt 0.602017 0.000000
vt 0.625000 0.008863
vt 0.625000 0.241137
vt 0.625000 0.499254
vt 0.397983 0.750746
vt 0.602017 0.750746
vt 0.602017 0.999254
vt 0.397983 0.999254
vt 0.397983 0.508863
vt 0.602017 0.508863
vt 0.602018 0.741137
vt 0.397982 0.741137
vt 0.625746 0.508863
vt 0.874254 0.508863
vt 0.874254 0.741137
vt 0.625746 0.741137
vt 0.397983 0.008863
vt 0.602017 0.008863
vt 0.602018 0.241137
vt 0.397982 0.241137
vt 0.397983 0.250746
vt 0.602017 0.250746
vt 0.602017 0.499254
vt 0.397983 0.499254
vt 0.125746 0.741137
vt 0.125746 0.750000
vt 0.125000 0.741137
vt 0.625000 0.999254
vt 0.602017 1.000000
vt 0.125746 0.508863
vt 0.125000 0.508863
vt 0.125746 0.500000
vt 0.625000 0.250746
vt 0.602017 0.250000
vt 0.602017 0.250000
vt 0.374254 0.741137
vt 0.375000 0.741137
vt 0.374254 0.750000
vt 0.625000 0.750746
vt 0.602017 0.750000
vt 0.602017 0.750000
vt 0.374254 0.508863
vt 0.374254 0.500000
vt 0.375000 0.508863
vt 0.625000 0.508863
vt 0.602017 0.500000
vt 0.602017 0.500000
vt 0.397983 0.000000
vt 0.602017 0.000000
vt 0.625000 0.008863
vt 0.625000 0.241137
vt 0.625000 0.499254
vt 0.397983 0.750746
vt 0.602017 0.750746
vt 0.602017 0.999254
vt 0.397983 0.999254
vt 0.397983 0.508863
vt 0.602017 0.508863
vt 0.602018 0.741137
vt 0.397982 0.741137
vt 0.625746 0.508863
vt 0.874254 0.508863
vt 0.874254 0.741137
vt 0.625746 0.741137
vt 0.397983 0.008863
vt 0.602017 0.008863
vt 0.602018 0.241137
vt 0.397982 0.241137
vt 0.397983 0.250746
vt 0.602017 0.250746
vt 0.602017 0.499254
vt 0.397983 0.499254
vt 0.125746 0.741137
vt 0.125746 0.750000
vt 0.125000 0.741137
vt 0.625000 0.999254
vt 0.602017 1.000000
vt 0.125746 0.508863
vt 0.125000 0.508863
vt 0.125746 0.500000
vt 0.625000 0.250746
vt 0.602017 0.250000
vt 0.602017 0.250000
vt 0.374254 0.741137
vt 0.375000 0.741137
vt 0.374254 0.750000
vt 0.625000 0.750746
vt 0.602017 0.750000
vt 0.602017 0.750000
vt 0.374254 0.508863
vt 0.374254 0.500000
vt 0.375000 0.508863
vt 0.625000 0.508863
vt 0.602017 0.500000
vt 0.602017 0.500000
vt 0.397983 0.000000
vt 0.602017 0.000000
vt 0.625000 0.008863
vt 0.625000 0.241137
vt 0.625000 0.499254
vt 0.375000 0.000000
vt 0.625000 0.000000
vt 0.625000 0.250000
vt 0.375000 0.250000
vt 0.625000 0.500000
vt 0.375000 0.500000
vt 0.625000 0.750000
vt 0.375000 0.750000
vt 0.625000 1.000000
vt 0.375000 1.000000
vt 0.125000 0.500000
vt 0.125000 0.750000
vt 0.875000 0.500000
vt 0.875000 0.750000
vt 0.375000 0.000000
vt 0.625000 0.000000
vt 0.625000 0.250000
vt 0.375000 0.250000
vt 0.625000 0.500000
vt 0.375000 0.500000
vt 0.625000 0.750000
vt 0.375000 0.750000
vt 0.625000 1.000000
vt 0.375000 1.000000
vt 0.125000 0.500000
vt 0.125000 0.750000
vt 0.875000 0.500000
vt 0.875000 0.750000
vt 0.375000 0.000000
vt 0.625000 0.000000
vt 0.625000 0.250000
vt 0.375000 0.250000
vt 0.625000 0.500000
vt 0.375000 0.500000
vt 0.625000 0.750000
vt 0.375000 0.750000
vt 0.625000 1.000000
vt 0.375000 1.000000
vt 0.125000 0.500000
vt 0.125000 0.750000
vt 0.875000 0.500000
vt 0.875000 0.750000
vt 0.375000 0.000000
vt 0.625000 0.000000
vt 0.625000 0.250000
vt 0.375000 0.250000
vt 0.625000 0.500000
vt 0.375000 0.500000
vt 0.625000 0.750000
vt 0.375000 0.750000
vt 0.625000 1.000000
vt 0.375000 1.000000
vt 0.125000 0.500000
vt 0.125000 0.750000
vt 0.875000 0.500000
vt 0.875000 0.750000
vt 0.375000 0.000000
vt 0.375000 0.250000
vt 0.625000 0.250000
vt 0.625000 0.000000
vt 0.375000 0.500000
vt 0.625000 0.500000
vt 0.375000 0.750000
vt 0.625000 0.750000
vt 0.375000 1.000000
vt 0.625000 1.000000
vt 0.125000 0.500000
vt 0.125000 0.750000
vt 0.875000 0.750000
vt 0.875000 0.500000
vt 0.375000 0.000000
vt 0.375000 0.250000
vt 0.625000 0.250000
vt 0.625000 0.000000
vt 0.375000 0.500000
vt 0.625000 0.500000
vt 0.375000 0.750000
vt 0.625000 0.750000
vt 0.375000 1.000000
vt 0.625000 1.000000
vt 0.125000 0.500000
vt 0.125000 0.750000
vt 0.875000 0.750000
vt 0.875000 0.500000
vt 0.375000 0.000000
vt 0.375000 0.250000
vt 0.625000 0.250000
vt 0.625000 0.000000
vt 0.375000 0.500000
vt 0.625000 0.500000
vt 0.375000 0.750000
vt 0.625000 0.750000
vt 0.375000 1.000000
vt 0.625000 1.000000
vt 0.125000 0.500000
vt 0.125000 0.750000
vt 0.875000 0.750000
vt 0.875000 0.500000
vt 0.375000 0.000000
vt 0.625000 0.000000
vt 0.625000 0.250000
vt 0.375000 0.250000
vt 0.625000 0.500000
vt 0.375000 0.500000
vt 0.625000 0.750000
vt 0.375000 0.750000
vt 0.625000 1.000000
vt 0.375000 1.000000
vt 0.125000 0.500000
vt 0.125000 0.750000
vt 0.875000 0.500000
vt 0.875000 0.750000
vt 0.375000 0.000000
vt 0.625000 0.000000
vt 0.625000 0.250000
vt 0.375000 0.250000
vt 0.625000 0.500000
vt 0.375000 0.500000
vt 0.625000 0.750000
vt 0.375000 0.750000
vt 0.625000 1.000000
vt 0.375000 1.000000
vt 0.125000 0.500000
vt 0.125000 0.750000
vt 0.875000 0.500000
vt 0.875000 0.750000
vt 0.375000 0.000000
vt 0.625000 0.000000
vt 0.625000 0.250000
vt 0.375000 0.250000
vt 0.625000 0.500000
vt 0.375000 0.500000
vt 0.625000 0.750000
vt 0.375000 0.750000
vt 0.625000 1.000000
vt 0.375000 1.000000
vt 0.125000 0.500000
vt 0.125000 0.750000
vt 0.875000 0.500000
vt 0.875000 0.750000
vt 0.375000 0.000000
vt 0.375000 0.250000
vt 0.625000 0.250000
vt 0.625000 0.000000
vt 0.375000 0.500000
vt 0.625000 0.500000
vt 0.375000 0.750000
vt 0.625000 0.750000
vt 0.375000 1.000000
vt 0.625000 1.000000
vt 0.125000 0.500000
vt 0.125000 0.750000
vt 0.875000 0.750000
vt 0.875000 0.500000
vt 0.375000 0.000000
vt 0.375000 0.250000
vt 0.625000 0.250000
vt 0.625000 0.000000
vt 0.375000 0.500000
vt 0.625000 0.500000
vt 0.375000 0.750000
vt 0.625000 0.750000
vt 0.375000 1.000000
vt 0.625000 1.000000
vt 0.125000 0.500000
vt 0.125000 0.750000
vt 0.875000 0.750000
vt 0.875000 0.500000
vt 0.375000 0.000000
vt 0.375000 0.250000
vt 0.625000 0.250000
vt 0.625000 0.000000
vt 0.375000 0.500000
vt 0.625000 0.500000
vt 0.375000 0.750000
vt 0.625000 0.750000
vt 0.375000 1.000000
vt 0.625000 1.000000
vt 0.125000 0.500000
vt 0.125000 0.750000
vt 0.875000 0.750000
vt 0.875000 0.500000
vt 0.375000 0.000000
vt 0.625000 0.000000
vt 0.625000 0.250000
vt 0.375000 0.250000
vt 0.625000 0.500000
vt 0.375000 0.500000
vt 0.625000 0.750000
vt 0.375000 0.750000
vt 0.625000 1.000000
vt 0.375000 1.000000
vt 0.125000 0.500000
vt 0.125000 0.750000
vt 0.875000 0.500000
vt 0.875000 0.750000
vt 0.375000 0.000000
vt 0.625000 0.000000
vt 0.625000 0.250000
vt 0.375000 0.250000
vt 0.625000 0.500000
vt 0.375000 0.500000
vt 0.625000 0.750000
vt 0.375000 0.750000
vt 0.625000 1.000000
vt 0.375000 1.000000
vt 0.125000 0.500000
vt 0.125000 0.750000
vt 0.875000 0.500000
vt 0.875000 0.750000
vt 0.375000 0.000000
vt 0.625000 0.000000
vt 0.625000 0.250000
vt 0.375000 0.250000
vt 0.625000 0.500000
vt 0.375000 0.500000
vt 0.625000 0.750000
vt 0.375000 0.750000
vt 0.625000 1.000000
vt 0.375000 1.000000
vt 0.125000 0.500000
vt 0.125000 0.750000
vt 0.875000 0.500000
vt 0.875000 0.750000
vt 0.375000 0.000000
vt 0.375000 0.250000
vt 0.625000 0.250000
vt 0.625000 0.000000
vt 0.375000 0.500000
vt 0.625000 0.500000
vt 0.375000 0.750000
vt 0.625000 0.750000
vt 0.375000 1.000000
vt 0.625000 1.000000
vt 0.125000 0.500000
vt 0.125000 0.750000
vt 0.875000 0.750000
vt 0.875000 0.500000
vt 0.375000 0.000000
vt 0.375000 0.250000
vt 0.625000 0.250000
vt 0.625000 0.000000
vt 0.375000 0.500000
vt 0.625000 0.500000
vt 0.375000 0.750000
vt 0.625000 0.750000
vt 0.375000 1.000000
vt 0.625000 1.000000
vt 0.125000 0.500000
vt 0.125000 0.750000
vt 0.875000 0.750000
vt 0.875000 0.500000
vt 0.375000 0.000000
vt 0.375000 0.250000
vt 0.625000 0.250000
vt 0.625000 0.000000
vt 0.375000 0.500000
vt 0.625000 0.500000
vt 0.375000 0.750000
vt 0.625000 0.750000
vt 0.375000 1.000000
vt 0.625000 1.000000
vt 0.125000 0.500000
vt 0.125000 0.750000
vt 0.875000 0.750000
vt 0.875000 0.500000
vt 0.375000 0.000000
vt 0.625000 0.000000
vt 0.625000 0.250000
vt 0.375000 0.250000
vt 0.625000 0.500000
vt 0.375000 0.500000
vt 0.625000 0.750000
vt 0.375000 0.750000
vt 0.625000 1.000000
vt 0.375000 1.000000
vt 0.125000 0.500000
vt 0.125000 0.750000
vt 0.875000 0.500000
vt 0.875000 0.750000
vn 0.9998 0.0000 0.0221
vn 0.0221 0.0000 -0.9998
vn 0.0000 1.0000 0.0000
vn -0.0221 0.0000 0.9998
vn -0.9998 0.0000 -0.0221
vn 0.4729 -0.6178 0.6283
vn 0.4729 0.6178 0.6283
vn -0.5002 -0.6177 0.6068
vn -0.5002 0.6177 0.6068
vn 0.5002 -0.6177 -0.6068
vn 0.5002 0.6177 -0.6068
vn -0.4729 -0.6177 -0.6283
vn -0.4729 0.6177 -0.6283
vn -0.0156 -0.7072 0.7069
vn 0.6014 0.0000 0.7989
vn -0.0156 0.7072 0.7069
vn -0.6361 0.0000 0.7716
vn -0.6187 -0.7855 -0.0137
vn -0.6187 0.7855 -0.0137
vn -0.6014 0.0000 -0.7989
vn 0.0156 -0.7072 -0.7069
vn 0.0156 0.7072 -0.7069
vn 0.6361 0.0000 -0.7716
vn 0.6187 -0.7855 0.0137
vn 0.6187 0.7855 0.0137
vn 0.0000 -1.0000 0.0000
vn 0.5002 -0.6178 -0.6068
vn 0.5002 0.6178 -0.6068
vn -0.4729 -0.6178 -0.6283
vn -0.4729 0.6178 -0.6283
vn -0.5002 -0.6178 0.6068
vn -0.5002 0.6178 0.6068
vn 0.4729 -0.6177 0.6283
vn 0.4729 0.6177 0.6283
vn -1.0000 0.0000 -0.0000
vn 0.0000 0.0000 -1.0000
vn 1.0000 0.0000 0.0000
vn 0.0000 0.0000 1.0000
vn 0.9957 0.0000 -0.0924
vn -0.0924 0.0000 -0.9957
vn 0.0924 0.0000 0.9957
vn -0.9957 0.0000 0.0924
vn 0.6282 -0.5774 0.5215
vn 0.6282 0.5774 0.5215
vn -0.5215 -0.5774 0.6282
vn -0.5215 0.5774 0.6282
vn 0.5215 -0.5774 -0.6282
vn 0.5215 0.5774 -0.6282
vn -0.6282 -0.5774 -0.5215
vn -0.6282 0.5774 -0.5215
vn 0.0654 -0.7071 0.7041
vn 0.7694 0.0000 0.6387
vn 0.0654 0.7071 0.7041
vn -0.6387 0.0000 0.7695
vn -0.7041 -0.7071 0.0654
vn -0.7041 0.7071 0.0654
vn -0.7694 0.0000 -0.6387
vn -0.0654 -0.7071 -0.7041
vn -0.0654 0.7071 -0.7041
vn 0.6387 0.0000 -0.7694
vn 0.7041 -0.7071 -0.0654
vn 0.7041 0.7071 -0.0654
vn 0.5773 -0.5773 0.5774
vn 0.5774 0.5774 0.5774
vn -0.5773 -0.5774 0.5774
vn -0.5773 0.5774 0.5773
vn 0.5774 -0.5773 -0.5774
vn 0.5774 0.5773 -0.5774
vn -0.5773 -0.5773 -0.5774
vn -0.5774 0.5774 -0.5774
vn 0.0000 -0.7071 0.7071
vn 0.7071 0.0000 0.7071
vn 0.0000 0.7071 0.7071
vn -0.7071 0.0000 0.7071
vn -0.7071 -0.7071 -0.0000
vn -0.7071 0.7071 -0.0000
vn -0.7071 0.0000 -0.7071
vn 0.0000 -0.7071 -0.7071
vn 0.0000 0.7071 -0.7071
vn 0.7071 0.0000 -0.7071
vn 0.7071 -0.7071 0.0000
vn 0.7071 0.7071 0.0000
vn 0.9993 0.0000 0.0361
vn 0.0361 0.0000 -0.9993
vn -0.0361 0.0000 0.9993
vn -0.9993 0.0000 -0.0361
vn 0.5561 -0.5773 0.5979
vn 0.5561 0.5773 0.5978
vn -0.5978 -0.5773 0.5562
vn -0.5978 0.5773 0.5562
vn 0.5978 -0.5773 -0.5562
vn 0.5978 0.5773 -0.5562
vn -0.5561 -0.5773 -0.5979
vn -0.5561 0.5773 -0.5979
vn -0.0255 -0.7071 0.7066
vn 0.6811 0.0000 0.7322
vn -0.0255 0.7071 0.7066
vn -0.7321 0.0000 0.6811
vn -0.7066 -0.7071 -0.0255
vn -0.7066 0.7071 -0.0255
vn -0.6811 0.0000 -0.7322
vn 0.0255 -0.7071 -0.7066
vn 0.0255 0.7071 -0.7066
vn 0.7322 0.0000 -0.6811
vn 0.7066 -0.7071 0.0255
vn 0.7066 0.7071 0.0255
vn 0.5561 -0.5773 0.5978
vn 0.5561 0.5774 0.5978
vn -0.5978 -0.5774 0.5561
vn -0.5978 0.5774 0.5561
vn -0.5561 -0.5774 -0.5978
vn -0.5561 0.5774 -0.5978
vn -0.7322 0.0000 0.6811
vn 0.0255 0.7071 -0.7067
vn 0.9997 0.0000 -0.0260
vn -0.0260 0.0000 -0.9997
vn 0.0260 0.0000 0.9997
vn -0.9997 0.0000 0.0260
vn 0.5922 -0.5774 0.5621
vn 0.5922 0.5774 0.5621
vn -0.5621 -0.5773 0.5922
vn -0.5621 0.5774 0.5922
vn 0.5621 -0.5773 -0.5922
vn 0.5621 0.5773 -0.5922
vn -0.5922 -0.5773 -0.5622
vn -0.5922 0.5773 -0.5621
vn 0.0184 -0.7071 0.7069
vn 0.7253 0.0000 0.6885
vn 0.0184 0.7071 0.7069
vn -0.6885 0.0000 0.7253
vn -0.7069 -0.7071 0.0184
vn -0.7069 0.7071 0.0184
vn -0.7253 0.0000 -0.6885
vn -0.0184 -0.7071 -0.7069
vn -0.0184 0.7071 -0.7069
vn 0.6885 0.0000 -0.7253
vn 0.7069 -0.7071 -0.0184
vn 0.7069 0.7071 -0.0184
vn 0.9998 0.0000 0.0209
vn 0.0209 0.0000 -0.9998
vn -0.0209 0.0000 0.9998
vn -0.9998 0.0000 -0.0209
vn 0.5651 -0.5773 0.5893
vn 0.5651 0.5773 0.5893
vn -0.5893 -0.5773 0.5652
vn -0.5893 0.5774 0.5651
vn 0.5893 -0.5773 -0.5652
vn 0.5893 0.5773 -0.5652
vn -0.5651 -0.5773 -0.5893
vn -0.5651 0.5773 -0.5893
vn -0.0148 -0.7071 0.7069
vn 0.6921 0.0000 0.7218
vn -0.0148 0.7071 0.7070
vn -0.7218 0.0000 0.6921
vn -0.7070 -0.7071 -0.0148
vn -0.7070 0.7071 -0.0148
vn -0.6921 0.0000 -0.7218
vn 0.0148 -0.7071 -0.7070
vn 0.0148 0.7071 -0.7070
vn 0.7217 0.0000 -0.6922
vn 0.7070 -0.7071 0.0148
vn 0.7070 0.7071 0.0148
vn 0.9996 0.0000 -0.0268
vn -0.0268 0.0000 -0.9996
vn 0.1134 0.0000 0.9936
vn -0.9874 0.0000 0.1582
vn 0.4803 -0.3958 0.7828
vn 0.4803 0.3958 0.7828
vn -0.3011 -0.3974 0.8669
vn -0.3011 0.3974 0.8669
vn 0.3763 -0.3982 -0.8366
vn 0.3763 0.3982 -0.8366
vn -0.4372 -0.4171 -0.7968
vn -0.4372 0.4170 -0.7968
vn 0.1019 -0.4385 0.8929
vn 0.5230 0.0000 0.8524
vn 0.1019 0.4385 0.8929
vn -0.3281 0.0000 0.9446
vn -0.7008 -0.7044 0.1123
vn -0.7008 0.7044 0.1123
vn -0.4811 0.0000 -0.8767
vn -0.0242 -0.4342 -0.9005
vn -0.0242 0.4342 -0.9005
vn 0.4102 0.0000 -0.9120
vn 0.7071 -0.7068 -0.0190
vn 0.7071 0.7068 -0.0190
vn 0.9883 0.0000 -0.1525
vn -0.1525 0.0000 -0.9883
vn 0.1525 0.0000 0.9883
vn -0.9883 0.0000 0.1525
vn 0.6587 -0.5773 0.4825
vn 0.6587 0.5773 0.4826
vn -0.4826 -0.5774 0.6586
vn -0.4826 0.5773 0.6586
vn 0.4826 -0.5774 -0.6586
vn 0.4826 0.5774 -0.6586
vn -0.6586 -0.5774 -0.4825
vn -0.6586 0.5773 -0.4826
vn 0.1078 -0.7071 0.6988
vn 0.8067 0.0000 0.5910
vn 0.1078 0.7071 0.6988
vn -0.5910 0.0000 0.8067
vn -0.6988 -0.7071 0.1078
vn -0.6988 0.7071 0.1078
vn -0.8067 0.0000 -0.5910
vn -0.1078 -0.7071 -0.6988
vn -0.1078 0.7071 -0.6988
vn 0.5910 0.0000 -0.8067
vn 0.6988 -0.7071 -0.1078
vn 0.6988 0.7071 -0.1078
vn 0.5922 -0.5773 0.5621
vn 0.5922 0.5773 0.5621
vn -0.5622 0.5773 0.5922
vn 0.5621 -0.5774 -0.5922
vn -0.5922 -0.5773 -0.5621
vn -0.5922 0.5773 -0.5622
vn 0.5922 -0.5773 0.5622
vn -0.5621 0.5773 0.5922
vn 0.9986 0.0000 0.0532
vn -0.0532 0.0000 0.9986
vn -0.9986 0.0000 -0.0532
vn 0.0532 0.0000 -0.9986
vn -0.7317 0.6816 0.0000
vn 0.7317 -0.6816 0.0000
vn -0.6816 -0.7317 0.0000
vn 0.6816 0.7317 0.0000
vn 0.7317 0.6816 0.0000
vn -0.7317 -0.6816 0.0000
vn 0.6816 -0.7317 0.0000
vn -0.6816 0.7317 0.0000
vn -0.9990 0.0000 -0.0442
vn -0.0442 0.0000 0.9990
vn 0.9990 0.0000 0.0442
vn 0.0442 0.0000 -0.9990
vn -0.7310 0.6816 -0.0323
vn 0.7310 -0.6816 0.0323
vn -0.6809 -0.7317 -0.0301
vn 0.6809 0.7317 0.0301
vn 0.7310 0.6816 0.0323
vn -0.7310 -0.6816 -0.0323
vn 0.6809 -0.7317 0.0301
vn -0.6809 0.7317 -0.0301
vn -0.0441 -0.0000 0.9990
vn 0.0441 -0.0000 -0.9990
s off
f 15/1/1 17/2/1 4/3/1 2/4/1
f 21/5/2 23/6/2 18/7/2 14/8/2
f 22/9/3 10/10/3 5/11/3 16/12/3
f 3/13/4 6/14/4 12/15/4 8/16/4
f 9/17/5 11/18/5 24/19/5 20/20/5
f 1/21/6 2/22/6 3/23/6
f 4/3/7 5/24/7 6/25/7
f 7/26/8 8/27/8 9/28/8
f 10/29/9 11/30/9 12/31/9
f 13/32/10 14/33/10 15/34/10
f 16/35/11 17/36/11 18/37/11
f 19/38/12 20/39/12 21/40/12
f 22/41/13 23/42/13 24/43/13
f 7/26/14 1/21/14 3/23/14 8/27/14
f 2/44/15 4/45/15 6/14/15 3/13/15
f 5/46/16 10/47/16 12/15/16 6/14/16
f 11/18/17 9/17/17 8/16/17 12/15/17
f 19/38/18 7/26/18 9/28/18 20/39/18
f 10/29/19 22/48/19 24/19/19 11/18/19
f 23/6/20 21/5/20 20/20/20 24/19/20
f 13/32/21 19/38/21 21/5/21 14/8/21
f 22/9/22 16/12/22 18/7/22 23/6/22
f 17/2/23 15/1/23 14/8/23 18/7/23
f 1/21/24 13/32/24 15/34/24 2/22/24
f 16/35/25 5/24/25 4/3/25 17/2/25
f 7/26/26 19/38/26 13/32/26 1/21/26
f 39/49/1 41/50/1 28/51/1 26/52/1
f 45/53/2 47/54/2 42/55/2 38/56/2
f 46/57/3 34/58/3 29/59/3 40/60/3
f 27/61/4 30/62/4 36/63/4 32/64/4
f 33/65/5 35/66/5 48/67/5 44/68/5
f 25/69/6 26/70/6 27/71/6
f 28/51/7 29/72/7 30/73/7
f 31/74/8 32/75/8 33/76/8
f 34/77/9 35/78/9 36/79/9
f 37/80/27 38/81/27 39/82/27
f 40/83/28 41/84/28 42/85/28
f 43/86/29 44/87/29 45/88/29
f 46/89/30 47/90/30 48/91/30
f 31/74/14 25/69/14 27/71/14 32/75/14
f 26/92/15 28/93/15 30/62/15 27/61/15
f 29/94/16 34/95/16 36/63/16 30/62/16
f 35/66/17 33/65/17 32/64/17 36/63/17
f 43/86/18 31/74/18 33/76/18 44/87/18
f 34/77/19 46/96/19 48/67/19 35/66/19
f 47/54/20 45/53/20 44/68/20 48/67/20
f 37/80/21 43/86/21 45/53/21 38/56/21
f 46/57/22 40/60/22 42/55/22 47/54/22
f 41/50/23 39/49/23 38/56/23 42/55/23
f 25/69/24 37/80/24 39/82/24 26/70/24
f 40/83/25 29/72/25 28/51/25 41/50/25
f 31/74/26 43/86/26 37/80/26 25/69/26
f 63/97/1 65/98/1 52/99/1 50/100/1
f 69/101/2 71/102/2 66/103/2 62/104/2
f 70/105/3 58/106/3 53/107/3 64/108/3
f 51/109/4 54/110/4 60/111/4 56/112/4
f 57/113/5 59/114/5 72/115/5 68/116/5
f 49/117/6 50/118/6 51/119/6
f 52/99/7 53/120/7 54/121/7
f 55/122/31 56/123/31 57/124/31
f 58/125/32 59/126/32 60/127/32
f 61/128/10 62/129/10 63/130/10
f 64/131/11 65/132/11 66/133/11
f 67/134/12 68/135/12 69/136/12
f 70/137/13 71/138/13 72/139/13
f 55/122/14 49/117/14 51/119/14 56/123/14
f 50/140/15 52/141/15 54/110/15 51/109/15
f 53/142/16 58/143/16 60/111/16 54/110/16
f 59/114/17 57/113/17 56/112/17 60/111/17
f 67/134/18 55/122/18 57/124/18 68/135/18
f 58/125/19 70/144/19 72/115/19 59/114/19
f 71/102/20 69/101/20 68/116/20 72/115/20
f 61/128/21 67/134/21 69/101/21 62/104/21
f 70/105/22 64/108/22 66/103/22 71/102/22
f 65/98/23 63/97/23 62/104/23 66/103/23
f 49/117/24 61/128/24 63/130/24 50/118/24
f 64/131/25 53/120/25 52/99/25 65/98/25
f 55/122/26 67/134/26 61/128/26 49/117/26
f 87/145/1 89/146/1 76/147/1 74/148/1
f 93/149/2 95/150/2 90/151/2 86/152/2
f 94/153/3 82/154/3 77/155/3 88/156/3
f 75/157/4 78/158/4 84/159/4 80/160/4
f 81/161/5 83/162/5 96/163/5 92/164/5
f 73/165/33 74/166/33 75/167/33
f 76/147/34 77/168/34 78/169/34
f 79/170/31 80/171/31 81/172/31
f 82/173/32 83/174/32 84/175/32
f 85/176/27 86/177/27 87/178/27
f 88/179/28 89/180/28 90/181/28
f 91/182/29 92/183/29 93/184/29
f 94/185/30 95/186/30 96/187/30
f 79/170/14 73/165/14 75/167/14 80/171/14
f 74/188/15 76/189/15 78/158/15 75/157/15
f 77/190/16 82/191/16 84/159/16 78/158/16
f 83/162/17 81/161/17 80/160/17 84/159/17
f 91/182/18 79/170/18 81/172/18 92/183/18
f 82/173/19 94/192/19 96/163/19 83/162/19
f 95/150/20 93/149/20 92/164/20 96/163/20
f 85/176/21 91/182/21 93/149/21 86/152/21
f 94/153/22 88/156/22 90/151/22 95/150/22
f 89/146/23 87/145/23 86/152/23 90/151/23
f 73/165/24 85/176/24 87/178/24 74/166/24
f 88/179/25 77/168/25 76/147/25 89/146/25
f 79/170/26 91/182/26 85/176/26 73/165/26
f 97/193/35 98/194/35 100/195/35 99/196/35
f 99/196/36 100/195/36 104/197/36 103/198/36
f 103/198/37 104/197/37 102/199/37 101/200/37
f 101/200/38 102/199/38 98/201/38 97/202/38
f 99/203/26 103/198/26 101/200/26 97/204/26
f 104/197/3 100/205/3 98/206/3 102/199/3
f 105/207/35 106/208/35 108/209/35 107/210/35
f 107/210/36 108/209/36 112/211/36 111/212/36
f 111/212/37 112/211/37 110/213/37 109/214/37
f 109/214/38 110/213/38 106/215/38 105/216/38
f 107/217/26 111/212/26 109/214/26 105/218/26
f 112/211/3 108/219/3 106/220/3 110/213/3
f 113/221/35 114/222/35 116/223/35 115/224/35
f 115/224/36 116/223/36 120/225/36 119/226/36
f 119/226/37 120/225/37 118/227/37 117/228/37
f 117/228/38 118/227/38 114/229/38 113/230/38
f 115/231/26 119/226/26 117/228/26 113/232/26
f 120/225/3 116/233/3 114/234/3 118/227/3
f 135/235/39 137/236/39 124/237/39 122/238/39
f 141/239/40 143/240/40 138/241/40 134/242/40
f 142/243/3 130/244/3 125/245/3 136/246/3
f 123/247/41 126/248/41 132/249/41 128/250/41
f 129/251/42 131/252/42 144/253/42 140/254/42
f 121/255/43 122/256/43 123/257/43
f 124/237/44 125/258/44 126/259/44
f 127/260/45 128/261/45 129/262/45
f 130/263/46 131/264/46 132/265/46
f 133/266/47 134/267/47 135/268/47
f 136/269/48 137/270/48 138/271/48
f 139/272/49 140/273/49 141/274/49
f 142/275/50 143/276/50 144/277/50
f 127/260/51 121/255/51 123/257/51 128/261/51
f 122/278/52 124/279/52 126/248/52 123/247/52
f 125/280/53 130/281/53 132/249/53 126/248/53
f 131/252/54 129/251/54 128/250/54 132/249/54
f 139/272/55 127/260/55 129/262/55 140/273/55
f 130/263/56 142/282/56 144/253/56 131/252/56
f 143/240/57 141/239/57 140/254/57 144/253/57
f 133/266/58 139/272/58 141/239/58 134/242/58
f 142/243/59 136/246/59 138/241/59 143/240/59
f 137/236/60 135/235/60 134/242/60 138/241/60
f 121/255/61 133/266/61 135/268/61 122/256/61
f 136/269/62 125/258/62 124/237/62 137/236/62
f 127/260/26 139/272/26 133/266/26 121/255/26
f 159/283/37 161/284/37 148/285/37 146/286/37
f 165/287/36 167/288/36 162/289/36 158/290/36
f 166/291/3 154/292/3 149/293/3 160/294/3
f 147/295/38 150/296/38 156/297/38 152/298/38
f 153/299/35 155/300/35 168/301/35 164/302/35
f 145/303/63 146/304/63 147/305/63
f 148/285/64 149/306/64 150/307/64
f 151/308/65 152/309/65 153/310/65
f 154/311/66 155/312/66 156/313/66
f 157/314/67 158/315/67 159/316/67
f 160/317/68 161/318/68 162/319/68
f 163/320/69 164/321/69 165/322/69
f 166/323/70 167/324/70 168/325/70
f 151/308/71 145/303/71 147/305/71 152/309/71
f 146/326/72 148/327/72 150/296/72 147/295/72
f 149/328/73 154/329/73 156/297/73 150/296/73
f 155/300/74 153/299/74 152/298/74 156/297/74
f 163/320/75 151/308/75 153/310/75 164/321/75
f 154/311/76 166/330/76 168/301/76 155/300/76
f 167/288/77 165/287/77 164/302/77 168/301/77
f 157/314/78 163/320/78 165/287/78 158/290/78
f 166/291/79 160/294/79 162/289/79 167/288/79
f 161/284/80 159/283/80 158/290/80 162/289/80
f 145/303/81 157/314/81 159/316/81 146/304/81
f 160/317/82 149/306/82 148/285/82 161/284/82
f 151/308/26 163/320/26 157/314/26 145/303/26
f 183/331/83 185/332/83 172/333/83 170/334/83
f 189/335/84 191/336/84 186/337/84 182/338/84
f 190/339/3 178/340/3 173/341/3 184/342/3
f 171/343/85 174/344/85 180/345/85 176/346/85
f 177/347/86 179/348/86 192/349/86 188/350/86
f 169/351/87 170/352/87 171/353/87
f 172/333/88 173/354/88 174/355/88
f 175/356/89 176/357/89 177/358/89
f 178/359/90 179/360/90 180/361/90
f 181/362/91 182/363/91 183/364/91
f 184/365/92 185/366/92 186/367/92
f 187/368/93 188/369/93 189/370/93
f 190/371/94 191/372/94 192/373/94
f 175/356/95 169/351/95 171/353/95 176/357/95
f 170/374/96 172/375/96 174/344/96 171/343/96
f 173/376/97 178/377/97 180/345/97 174/344/97
f 179/348/98 177/347/98 176/346/98 180/345/98
f 187/368/99 175/356/99 177/358/99 188/369/99
f 178/359/100 190/378/100 192/349/100 179/348/100
f 191/336/101 189/335/101 188/350/101 192/349/101
f 181/362/102 187/368/102 189/335/102 182/338/102
f 190/339/103 184/342/103 186/337/103 191/336/103
f 185/332/104 183/331/104 182/338/104 186/337/104
f 169/351/105 181/362/105 183/364/105 170/352/105
f 184/365/106 173/354/106 172/333/106 185/332/106
f 175/356/26 187/368/26 181/362/26 169/351/26
f 207/379/83 209/380/83 196/381/83 194/382/83
f 213/383/84 215/384/84 210/385/84 206/386/84
f 214/387/3 202/388/3 197/389/3 208/390/3
f 195/391/85 198/392/85 204/393/85 200/394/85
f 201/395/86 203/396/86 216/397/86 212/398/86
f 193/399/107 194/400/107 195/401/107
f 196/381/108 197/402/108 198/403/108
f 199/404/109 200/405/109 201/406/109
f 202/407/110 203/408/110 204/409/110
f 205/410/91 206/411/91 207/412/91
f 208/413/92 209/414/92 210/415/92
f 211/416/111 212/417/111 213/418/111
f 214/419/112 215/420/112 216/421/112
f 199/404/95 193/399/95 195/401/95 200/405/95
f 194/422/96 196/423/96 198/392/96 195/391/96
f 197/424/97 202/425/97 204/393/97 198/392/97
f 203/396/113 201/395/113 200/394/113 204/393/113
f 211/416/99 199/404/99 201/406/99 212/417/99
f 202/407/100 214/426/100 216/397/100 203/396/100
f 215/384/101 213/383/101 212/398/101 216/397/101
f 205/410/102 211/416/102 213/383/102 206/386/102
f 214/387/114 208/390/114 210/385/114 215/384/114
f 209/380/104 207/379/104 206/386/104 210/385/104
f 193/399/105 205/410/105 207/412/105 194/400/105
f 208/413/106 197/402/106 196/381/106 209/380/106
f 199/404/26 211/416/26 205/410/26 193/399/26
f 231/427/115 233/428/115 220/429/115 218/430/115
f 237/431/116 239/432/116 234/433/116 230/434/116
f 238/435/3 226/436/3 221/437/3 232/438/3
f 219/439/117 222/440/117 228/441/117 224/442/117
f 225/443/118 227/444/118 240/445/118 236/446/118
f 217/447/119 218/448/119 219/449/119
f 220/429/120 221/450/120 222/451/120
f 223/452/121 224/453/121 225/454/121
f 226/455/122 227/456/122 228/457/122
f 229/458/123 230/459/123 231/460/123
f 232/461/124 233/462/124 234/463/124
f 235/464/125 236/465/125 237/466/125
f 238/467/126 239/468/126 240/469/126
f 223/452/127 217/447/127 219/449/127 224/453/127
f 218/470/128 220/471/128 222/440/128 219/439/128
f 221/472/129 226/473/129 228/441/129 222/440/129
f 227/444/130 225/443/130 224/442/130 228/441/130
f 235/464/131 223/452/131 225/454/131 236/465/131
f 226/455/132 238/474/132 240/445/132 227/444/132
f 239/432/133 237/431/133 236/446/133 240/445/133
f 229/458/134 235/464/134 237/431/134 230/434/134
f 238/435/135 232/438/135 234/433/135 239/432/135
f 233/428/136 231/427/136 230/434/136 234/433/136
f 217/447/137 229/458/137 231/460/137 218/448/137
f 232/461/138 221/450/138 220/429/138 233/428/138
f 223/452/26 235/464/26 229/458/26 217/447/26
f 255/475/139 257/476/139 244/477/139 242/478/139
f 261/479/140 263/480/140 258/481/140 254/482/140
f 262/483/3 250/484/3 245/485/3 256/486/3
f 243/487/141 246/488/141 252/489/141 248/490/141
f 249/491/142 251/492/142 264/493/142 260/494/142
f 241/495/143 242/496/143 243/497/143
f 244/477/144 245/498/144 246/499/144
f 247/500/145 248/501/145 249/502/145
f 250/503/146 251/504/146 252/505/146
f 253/506/147 254/507/147 255/508/147
f 256/509/148 257/510/148 258/511/148
f 259/512/149 260/513/149 261/514/149
f 262/515/150 263/516/150 264/517/150
f 247/500/151 241/495/151 243/497/151 248/501/151
f 242/518/152 244/519/152 246/488/152 243/487/152
f 245/520/153 250/521/153 252/489/153 246/488/153
f 251/492/154 249/491/154 248/490/154 252/489/154
f 259/512/155 247/500/155 249/502/155 260/513/155
f 250/503/156 262/522/156 264/493/156 251/492/156
f 263/480/157 261/479/157 260/494/157 264/493/157
f 253/506/158 259/512/158 261/479/158 254/482/158
f 262/483/159 256/486/159 258/481/159 263/480/159
f 257/476/160 255/475/160 254/482/160 258/481/160
f 241/495/161 253/506/161 255/508/161 242/496/161
f 256/509/162 245/498/162 244/477/162 257/476/162
f 247/500/26 259/512/26 253/506/26 241/495/26
f 279/523/163 281/524/163 268/525/163 266/526/163
f 285/527/164 287/528/164 282/529/164 278/530/164
f 286/531/3 274/532/3 269/533/3 280/534/3
f 267/535/165 270/536/165 276/537/165 272/538/165
f 273/539/166 275/540/166 288/541/166 284/542/166
f 265/543/167 266/544/167 267/545/167
f 268/525/168 269/546/168 270/547/168
f 271/548/169 272/549/169 273/550/169
f 274/551/170 275/552/170 276/553/170
f 277/554/171 278/555/171 279/556/171
f 280/557/172 281/558/172 282/559/172
f 283/560/173 284/561/173 285/562/173
f 286/563/174 287/564/174 288/565/174
f 271/548/175 265/543/175 267/545/175 272/549/175
f 266/566/176 268/567/176 270/536/176 267/535/176
f 269/568/177 274/569/177 276/537/177 270/536/177
f 275/540/178 273/539/178 272/538/178 276/537/178
f 283/560/179 271/548/179 273/550/179 284/561/179
f 274/551/180 286/570/180 288/541/180 275/540/180
f 287/528/181 285/527/181 284/542/181 288/541/181
f 277/554/182 283/560/182 285/527/182 278/530/182
f 286/531/183 280/534/183 282/529/183 287/528/183
f 281/524/184 279/523/184 278/530/184 282/529/184
f 265/543/185 277/554/185 279/556/185 266/544/185
f 280/557/186 269/546/186 268/525/186 281/524/186
f 271/548/26 283/560/26 277/554/26 265/543/26
f 303/571/187 305/572/187 292/573/187 290/574/187
f 309/575/188 311/576/188 306/577/188 302/578/188
f 310/579/3 298/580/3 293/581/3 304/582/3
f 291/583/189 294/584/189 300/585/189 296/586/189
f 297/587/190 299/588/190 312/589/190 308/590/190
f 289/591/191 290/592/191 291/593/191
f 292/573/192 293/594/192 294/595/192
f 295/596/193 296/597/193 297/598/193
f 298/599/194 299/600/194 300/601/194
f 301/602/195 302/603/195 303/604/195
f 304/605/196 305/606/196 306/607/196
f 307/608/197 308/609/197 309/610/197
f 310/611/198 311/612/198 312/613/198
f 295/596/199 289/591/199 291/593/199 296/597/199
f 290/614/200 292/615/200 294/584/200 291/583/200
f 293/616/201 298/617/201 300/585/201 294/584/201
f 299/588/202 297/587/202 296/586/202 300/585/202
f 307/608/203 295/596/203 297/598/203 308/609/203
f 298/599/204 310/618/204 312/589/204 299/588/204
f 311/576/205 309/575/205 308/590/205 312/589/205
f 301/602/206 307/608/206 309/575/206 302/578/206
f 310/579/207 304/582/207 306/577/207 311/576/207
f 305/572/208 303/571/208 302/578/208 306/577/208
f 289/591/209 301/602/209 303/604/209 290/592/209
f 304/605/210 293/594/210 292/573/210 305/572/210
f 295/596/26 307/608/26 301/602/26 289/591/26
f 327/619/115 329/620/115 316/621/115 314/622/115
f 333/623/116 335/624/116 330/625/116 326/626/116
f 334/627/3 322/628/3 317/629/3 328/630/3
f 315/631/117 318/632/117 324/633/117 320/634/117
f 321/635/118 323/636/118 336/637/118 332/638/118
f 313/639/211 314/640/211 315/641/211
f 316/621/212 317/642/212 318/643/212
f 319/644/121 320/645/121 321/646/121
f 322/647/213 323/648/213 324/649/213
f 325/650/214 326/651/214 327/652/214
f 328/653/124 329/654/124 330/655/124
f 331/656/215 332/657/215 333/658/215
f 334/659/216 335/660/216 336/661/216
f 319/644/127 313/639/127 315/641/127 320/645/127
f 314/662/128 316/663/128 318/632/128 315/631/128
f 317/664/129 322/665/129 324/633/129 318/632/129
f 323/636/130 321/635/130 320/634/130 324/633/130
f 331/656/131 319/644/131 321/646/131 332/657/131
f 322/647/132 334/666/132 336/637/132 323/636/132
f 335/624/133 333/623/133 332/638/133 336/637/133
f 325/650/134 331/656/134 333/623/134 326/626/134
f 334/627/135 328/630/135 330/625/135 335/624/135
f 329/620/136 327/619/136 326/626/136 330/625/136
f 313/639/137 325/650/137 327/652/137 314/640/137
f 328/653/138 317/642/138 316/621/138 329/620/138
f 319/644/26 331/656/26 325/650/26 313/639/26
f 351/667/115 353/668/115 340/669/115 338/670/115
f 357/671/116 359/672/116 354/673/116 350/674/116
f 358/675/3 346/676/3 341/677/3 352/678/3
f 339/679/117 342/680/117 348/681/117 344/682/117
f 345/683/118 347/684/118 360/685/118 356/686/118
f 337/687/217 338/688/217 339/689/217
f 340/669/212 341/690/212 342/691/212
f 343/692/121 344/693/121 345/694/121
f 346/695/218 347/696/218 348/697/218
f 349/698/123 350/699/123 351/700/123
f 352/701/124 353/702/124 354/703/124
f 355/704/125 356/705/125 357/706/125
f 358/707/216 359/708/216 360/709/216
f 343/692/127 337/687/127 339/689/127 344/693/127
f 338/710/128 340/711/128 342/680/128 339/679/128
f 341/712/129 346/713/129 348/681/129 342/680/129
f 347/684/130 345/683/130 344/682/130 348/681/130
f 355/704/131 343/692/131 345/694/131 356/705/131
f 346/695/132 358/714/132 360/685/132 347/684/132
f 359/672/133 357/671/133 356/686/133 360/685/133
f 349/698/134 355/704/134 357/671/134 350/674/134
f 358/675/135 352/678/135 354/673/135 359/672/135
f 353/668/136 351/667/136 350/674/136 354/673/136
f 337/687/137 349/698/137 351/700/137 338/688/137
f 352/701/138 341/690/138 340/669/138 353/668/138
f 343/692/26 355/704/26 349/698/26 337/687/26
f 361/715/4 362/716/4 364/717/4 363/718/4
f 363/718/5 364/717/5 368/719/5 367/720/5
f 367/720/2 368/719/2 366/721/2 365/722/2
f 365/722/1 366/721/1 362/723/1 361/724/1
f 363/725/26 367/720/26 365/722/26 361/726/26
f 368/719/3 364/727/3 362/728/3 366/721/3
f 383/729/1 385/730/1 372/731/1 370/732/1
f 389/733/2 391/734/2 386/735/2 382/736/2
f 390/737/3 378/738/3 373/739/3 384/740/3
f 371/741/4 374/742/4 380/743/4 376/744/4
f 377/745/5 379/746/5 392/747/5 388/748/5
f 369/749/6 370/750/6 371/751/6
f 372/731/7 373/752/7 374/753/7
f 375/754/31 376/755/31 377/756/31
f 378/757/32 379/758/32 380/759/32
f 381/760/27 382/761/27 383/762/27
f 384/763/28 385/764/28 386/765/28
f 387/766/29 388/767/29 389/768/29
f 390/769/30 391/770/30 392/771/30
f 375/754/14 369/749/14 371/751/14 376/755/14
f 370/772/15 372/773/15 374/742/15 371/741/15
f 373/774/16 378/775/16 380/743/16 374/742/16
f 379/746/17 377/745/17 376/744/17 380/743/17
f 387/766/18 375/754/18 377/756/18 388/767/18
f 378/757/19 390/776/19 392/747/19 379/746/19
f 391/734/20 389/733/20 388/748/20 392/747/20
f 381/760/21 387/766/21 389/733/21 382/736/21
f 390/737/22 384/740/22 386/735/22 391/734/22
f 385/730/23 383/729/23 382/736/23 386/735/23
f 369/749/24 381/760/24 383/762/24 370/750/24
f 384/763/25 373/752/25 372/731/25 385/730/25
f 375/754/26 387/766/26 381/760/26 369/749/26
f 407/777/1 409/778/1 396/779/1 394/780/1
f 413/781/2 415/782/2 410/783/2 406/784/2
f 414/785/3 402/786/3 397/787/3 408/788/3
f 395/789/4 398/790/4 404/791/4 400/792/4
f 401/793/5 403/794/5 416/795/5 412/796/5
f 393/797/6 394/798/6 395/799/6
f 396/779/7 397/800/7 398/801/7
f 399/802/31 400/803/31 401/804/31
f 402/805/32 403/806/32 404/807/32
f 405/808/10 406/809/10 407/810/10
f 408/811/11 409/812/11 410/813/11
f 411/814/29 412/815/29 413/816/29
f 414/817/30 415/818/30 416/819/30
f 399/802/14 393/797/14 395/799/14 400/803/14
f 394/820/15 396/821/15 398/790/15 395/789/15
f 397/822/16 402/823/16 404/791/16 398/790/16
f 403/794/17 401/793/17 400/792/17 404/791/17
f 411/814/18 399/802/18 401/804/18 412/815/18
f 402/805/19 414/824/19 416/795/19 403/794/19
f 415/782/20 413/781/20 412/796/20 416/795/20
f 405/808/21 411/814/21 413/781/21 406/784/21
f 414/785/22 408/788/22 410/783/22 415/782/22
f 409/778/23 407/777/23 406/784/23 410/783/23
f 393/797/24 405/808/24 407/810/24 394/798/24
f 408/811/25 397/800/25 396/779/25 409/778/25
f 399/802/26 411/814/26 405/808/26 393/797/26
f 431/825/1 433/826/1 420/827/1 418/828/1
f 437/829/2 439/830/2 434/831/2 430/832/2
f 438/833/3 426/834/3 421/835/3 432/836/3
f 419/837/4 422/838/4 428/839/4 424/840/4
f 425/841/5 427/842/5 440/843/5 436/844/5
f 417/845/6 418/846/6 419/847/6
f 420/827/7 421/848/7 422/849/7
f 423/850/31 424/851/31 425/852/31
f 426/853/32 427/854/32 428/855/32
f 429/856/27 430/857/27 431/858/27
f 432/859/28 433/860/28 434/861/28
f 435/862/29 436/863/29 437/864/29
f 438/865/30 439/866/30 440/867/30
f 423/850/14 417/845/14 419/847/14 424/851/14
f 418/868/15 420/869/15 422/838/15 419/837/15
f 421/870/16 426/871/16 428/839/16 422/838/16
f 427/842/17 425/841/17 424/840/17 428/839/17
f 435/862/18 423/850/18 425/852/18 436/863/18
f 426/853/19 438/872/19 440/843/19 427/842/19
f 439/830/20 437/829/20 436/844/20 440/843/20
f 429/856/21 435/862/21 437/829/21 430/832/21
f 438/833/22 432/836/22 434/831/22 439/830/22
f 433/826/23 431/825/23 430/832/23 434/831/23
f 417/845/24 429/856/24 431/858/24 418/846/24
f 432/859/25 421/848/25 420/827/25 433/826/25
f 423/850/26 435/862/26 429/856/26 417/845/26
f 455/873/1 457/874/1 444/875/1 442/876/1
f 461/877/2 463/878/2 458/879/2 454/880/2
f 462/881/3 450/882/3 445/883/3 456/884/3
f 443/885/4 446/886/4 452/887/4 448/888/4
f 449/889/5 451/890/5 464/891/5 460/892/5
f 441/893/33 442/894/33 443/895/33
f 444/875/34 445/896/34 446/897/34
f 447/898/8 448/899/8 449/900/8
f 450/901/9 451/902/9 452/903/9
f 453/904/10 454/905/10 455/906/10
f 456/907/11 457/908/11 458/909/11
f 459/910/29 460/911/29 461/912/29
f 462/913/30 463/914/30 464/915/30
f 447/898/14 441/893/14 443/895/14 448/899/14
f 442/916/15 444/917/15 446/886/15 443/885/15
f 445/918/16 450/919/16 452/887/16 446/886/16
f 451/890/17 449/889/17 448/888/17 452/887/17
f 459/910/18 447/898/18 449/900/18 460/911/18
f 450/901/19 462/920/19 464/891/19 451/890/19
f 463/878/20 461/877/20 460/892/20 464/891/20
f 453/904/21 459/910/21 461/877/21 454/880/21
f 462/881/22 456/884/22 458/879/22 463/878/22
f 457/874/23 455/873/23 454/880/23 458/879/23
f 441/893/24 453/904/24 455/906/24 442/894/24
f 456/907/25 445/896/25 444/875/25 457/874/25
f 447/898/26 459/910/26 453/904/26 441/893/26
f 465/921/219 466/922/219 468/923/219 467/924/219
f 467/924/220 468/923/220 472/925/220 471/926/220
f 471/926/221 472/925/221 470/927/221 469/928/221
f 469/928/222 470/927/222 466/929/222 465/930/222
f 467/931/26 471/926/26 469/928/26 465/932/26
f 472/925/3 468/933/3 466/934/3 470/927/3
f 473/935/219 474/936/219 476/937/219 475/938/219
f 475/938/220 476/937/220 480/939/220 479/940/220
f 479/940/221 480/939/221 478/941/221 477/942/221
f 477/942/222 478/941/222 474/943/222 473/944/222
f 475/945/26 479/940/26 477/942/26 473/946/26
f 480/939/3 476/947/3 474/948/3 478/941/3
f 481/949/35 482/950/35 484/951/35 483/952/35
f 483/952/36 484/951/36 488/953/36 487/954/36
f 487/954/37 488/953/37 486/955/37 485/956/37
f 485/956/38 486/955/38 482/957/38 481/958/38
f 483/959/26 487/954/26 485/956/26 481/960/26
f 488/953/3 484/961/3 482/962/3 486/955/3
f 489/963/223 490/964/223 492/965/223 491/966/223
f 491/966/36 492/965/36 496/967/36 495/968/36
f 495/968/224 496/967/224 494/969/224 493/970/224
f 493/970/38 494/969/38 490/971/38 489/972/38
f 491/973/225 495/968/225 493/970/225 489/974/225
f 496/967/226 492/975/226 490/976/226 494/969/226
f 497/977/227 499/978/227 500/979/227 498/980/227
f 499/978/36 503/981/36 504/982/36 500/979/36
f 503/981/228 501/983/228 502/984/228 504/982/228
f 501/983/38 497/985/38 498/986/38 502/984/38
f 499/987/229 497/988/229 501/983/229 503/981/229
f 504/982/230 502/984/230 498/989/230 500/990/230
f 505/991/231 507/992/231 508/993/231 506/994/231
f 507/992/232 511/995/232 512/996/232 508/993/232
f 511/995/233 509/997/233 510/998/233 512/996/233
f 509/997/234 505/999/234 506/1000/234 510/998/234
f 507/1001/26 505/1002/26 509/997/26 511/995/26
f 512/996/3 510/998/3 506/1003/3 508/1004/3
f 513/1005/235 515/1006/235 516/1007/235 514/1008/235
f 515/1006/232 519/1009/232 520/1010/232 516/1007/232
f 519/1009/236 517/1011/236 518/1012/236 520/1010/236
f 517/1011/234 513/1013/234 514/1014/234 518/1012/234
f 515/1015/237 513/1016/237 517/1011/237 519/1009/237
f 520/1010/238 518/1012/238 514/1017/238 516/1018/238
f 521/1019/239 522/1020/239 524/1021/239 523/1022/239
f 523/1022/232 524/1021/232 528/1023/232 527/1024/232
f 527/1024/240 528/1023/240 526/1025/240 525/1026/240
f 525/1026/234 526/1025/234 522/1027/234 521/1028/234
f 523/1029/241 527/1024/241 525/1026/241 521/1030/241
f 528/1023/242 524/1031/242 522/1032/242 526/1025/242
f 529/1033/35 530/1034/35 532/1035/35 531/1036/35
f 531/1036/36 532/1035/36 536/1037/36 535/1038/36
f 535/1038/37 536/1037/37 534/1039/37 533/1040/37
f 533/1040/38 534/1039/38 530/1041/38 529/1042/38
f 531/1043/26 535/1038/26 533/1040/26 529/1044/26
f 536/1037/3 532/1045/3 530/1046/3 534/1039/3
f 537/1047/223 538/1048/223 540/1049/223 539/1050/223
f 539/1050/36 540/1049/36 544/1051/36 543/1052/36
f 543/1052/224 544/1051/224 542/1053/224 541/1054/224
f 541/1054/38 542/1053/38 538/1055/38 537/1056/38
f 539/1057/225 543/1052/225 541/1054/225 537/1058/225
f 544/1051/226 540/1059/226 538/1060/226 542/1053/226
f 545/1061/227 547/1062/227 548/1063/227 546/1064/227
f 547/1062/36 551/1065/36 552/1066/36 548/1063/36
f 551/1065/228 549/1067/228 550/1068/228 552/1066/228
f 549/1067/38 545/1069/38 546/1070/38 550/1068/38
f 547/1071/229 545/1072/229 549/1067/229 551/1065/229
f 552/1066/230 550/1068/230 546/1073/230 548/1074/230
f 553/1075/231 555/1076/231 556/1077/231 554/1078/231
f 555/1076/232 559/1079/232 560/1080/232 556/1077/232
f 559/1079/233 557/1081/233 558/1082/233 560/1080/233
f 557/1081/234 553/1083/234 554/1084/234 558/1082/234
f 555/1085/26 553/1086/26 557/1081/26 559/1079/26
f 560/1080/3 558/1082/3 554/1087/3 556/1088/3
f 561/1089/235 563/1090/235 564/1091/235 562/1092/235
f 563/1090/243 567/1093/243 568/1094/243 564/1091/243
f 567/1093/236 565/1095/236 566/1096/236 568/1094/236
f 565/1095/234 561/1097/234 562/1098/234 566/1096/234
f 563/1099/237 561/1100/237 565/1095/237 567/1093/237
f 568/1094/238 566/1096/238 562/1101/238 564/1102/238
f 569/1103/239 570/1104/239 572/1105/239 571/1106/239
f 571/1106/232 572/1105/232 576/1107/232 575/1108/232
f 575/1108/240 576/1107/240 574/1109/240 573/1110/240
f 573/1110/244 574/1109/244 570/1111/244 569/1112/244
f 571/1113/241 575/1108/241 573/1110/241 569/1114/241
f 576/1107/242 572/1115/242 570/1116/242 574/1109/242
f 577/1117/35 578/1118/35 580/1119/35 579/1120/35
f 579/1120/36 580/1119/36 584/1121/36 583/1122/36
f 583/1122/37 584/1121/37 582/1123/37 581/1124/37
f 581/1124/38 582/1123/38 578/1125/38 577/1126/38
f 579/1127/26 583/1122/26 581/1124/26 577/1128/26
f 584/1121/3 580/1129/3 578/1130/3 582/1123/3
f 585/1131/223 586/1132/223 588/1133/223 587/1134/223
f 587/1134/36 588/1133/36 592/1135/36 591/1136/36
f 591/1136/224 592/1135/224 590/1137/224 589/1138/224
f 589/1138/38 590/1137/38 586/1139/38 585/1140/38
f 587/1141/225 591/1136/225 589/1138/225 585/1142/225
f 592/1135/226 588/1143/226 586/1144/226 590/1137/226
f 593/1145/227 595/1146/227 596/1147/227 594/1148/227
f 595/1146/36 599/1149/36 600/1150/36 596/1147/36
f 599/1149/228 597/1151/228 598/1152/228 600/1150/228
f 597/1151/38 593/1153/38 594/1154/38 598/1152/38
f 595/1155/229 593/1156/229 597/1151/229 599/1149/229
f 600/1150/230 598/1152/230 594/1157/230 596/1158/230
f 601/1159/231 603/1160/231 604/1161/231 602/1162/231
f 603/1160/232 607/1163/232 608/1164/232 604/1161/232
f 607/1163/233 605/1165/233 606/1166/233 608/1164/233
f 605/1165/234 601/1167/234 602/1168/234 606/1166/234
f 603/1169/26 601/1170/26 605/1165/26 607/1163/26
f 608/1164/3 606/1166/3 602/1171/3 604/1172/3
f 609/1173/235 611/1174/235 612/1175/235 610/1176/235
f 611/1174/243 615/1177/243 616/1178/243 612/1175/243
f 615/1177/236 613/1179/236 614/1180/236 616/1178/236
f 613/1179/234 609/1181/234 610/1182/234 614/1180/234
f 611/1183/237 609/1184/237 613/1179/237 615/1177/237
f 616/1178/238 614/1180/238 610/1185/238 612/1186/238
f 617/1187/239 618/1188/239 620/1189/239 619/1190/239
f 619/1190/232 620/1189/232 624/1191/232 623/1192/232
f 623/1192/240 624/1191/240 622/1193/240 621/1194/240
f 621/1194/244 622/1193/244 618/1195/244 617/1196/244
f 619/1197/241 623/1192/241 621/1194/241 617/1198/241
f 624/1191/242 620/1199/242 618/1200/242 622/1193/242
